<svg width="241" height="248" viewBox="0 0 241 248" fill="none" xmlns="http://www.w3.org/2000/svg">
<mask id="mask0_1761_1750" style="mask-type:alpha" maskUnits="userSpaceOnUse" x="0" y="2" width="241" height="246">
<path d="M0 17.0994C0 8.0392 7.97071 1.04709 16.9537 2.22717L227.954 29.9457C235.419 30.9264 241 37.2889 241 44.8179V233C241 241.284 234.284 248 226 248H15C6.71573 248 0 241.284 0 233V17.0994Z" fill="url(#paint0_radial_1761_1750)"/>
<rect x="50" y="201" width="141" height="32" rx="15" fill="black" fill-opacity="0.15"/>
<path d="M102.702 222C102.562 222 102.45 221.963 102.366 221.888C102.291 221.804 102.24 221.701 102.212 221.58L100.546 212.606C100.546 212.578 100.541 212.555 100.532 212.536C100.532 212.517 100.532 212.503 100.532 212.494C100.532 212.41 100.56 212.34 100.616 212.284C100.681 212.228 100.751 212.2 100.826 212.2H102.058C102.291 212.2 102.422 212.293 102.45 212.48L103.612 218.822L104.872 214.72C104.9 214.645 104.947 214.571 105.012 214.496C105.087 214.412 105.194 214.37 105.334 214.37H106.09C106.239 214.37 106.347 214.412 106.412 214.496C106.477 214.571 106.519 214.645 106.538 214.72L107.812 218.808L108.974 212.48C109.002 212.293 109.133 212.2 109.366 212.2H110.598C110.673 212.2 110.738 212.228 110.794 212.284C110.85 212.34 110.878 212.41 110.878 212.494C110.878 212.503 110.878 212.517 110.878 212.536C110.878 212.555 110.873 212.578 110.864 212.606L109.198 221.58C109.179 221.701 109.128 221.804 109.044 221.888C108.96 221.963 108.848 222 108.708 222H107.77C107.63 222 107.518 221.963 107.434 221.888C107.359 221.813 107.308 221.734 107.28 221.65L105.712 216.974L104.144 221.65C104.107 221.734 104.051 221.813 103.976 221.888C103.901 221.963 103.789 222 103.64 222H102.702ZM112.704 222C112.61 222 112.531 221.967 112.466 221.902C112.4 221.837 112.368 221.757 112.368 221.664V212.396C112.368 212.303 112.4 212.223 112.466 212.158C112.531 212.093 112.61 212.06 112.704 212.06H113.95C114.052 212.06 114.132 212.093 114.188 212.158C114.253 212.223 114.286 212.303 114.286 212.396V215.588C114.538 215.289 114.846 215.047 115.21 214.86C115.574 214.673 116.022 214.58 116.554 214.58C117.123 214.58 117.618 214.711 118.038 214.972C118.467 215.224 118.798 215.583 119.032 216.05C119.265 216.517 119.382 217.077 119.382 217.73V221.664C119.382 221.757 119.349 221.837 119.284 221.902C119.218 221.967 119.139 222 119.046 222H117.786C117.692 222 117.613 221.967 117.548 221.902C117.482 221.837 117.45 221.757 117.45 221.664V217.814C117.45 217.273 117.314 216.848 117.044 216.54C116.782 216.232 116.4 216.078 115.896 216.078C115.41 216.078 115.018 216.232 114.72 216.54C114.43 216.848 114.286 217.273 114.286 217.814V221.664C114.286 221.757 114.253 221.837 114.188 221.902C114.132 221.967 114.052 222 113.95 222H112.704ZM124.294 222.14C123.258 222.14 122.437 221.841 121.83 221.244C121.224 220.647 120.897 219.797 120.85 218.696C120.841 218.603 120.836 218.486 120.836 218.346C120.836 218.197 120.841 218.08 120.85 217.996C120.888 217.287 121.046 216.68 121.326 216.176C121.616 215.663 122.012 215.271 122.516 215C123.02 214.72 123.613 214.58 124.294 214.58C125.05 214.58 125.685 214.739 126.198 215.056C126.712 215.364 127.099 215.798 127.36 216.358C127.622 216.909 127.752 217.548 127.752 218.276V218.57C127.752 218.663 127.72 218.743 127.654 218.808C127.589 218.873 127.505 218.906 127.402 218.906H122.754C122.754 218.906 122.754 218.92 122.754 218.948C122.754 218.976 122.754 218.999 122.754 219.018C122.764 219.345 122.824 219.648 122.936 219.928C123.058 220.199 123.23 220.418 123.454 220.586C123.688 220.754 123.963 220.838 124.28 220.838C124.542 220.838 124.761 220.801 124.938 220.726C125.116 220.642 125.26 220.549 125.372 220.446C125.484 220.343 125.564 220.259 125.61 220.194C125.694 220.082 125.76 220.017 125.806 219.998C125.862 219.97 125.942 219.956 126.044 219.956H127.248C127.342 219.956 127.416 219.984 127.472 220.04C127.538 220.096 127.566 220.166 127.556 220.25C127.547 220.399 127.468 220.581 127.318 220.796C127.178 221.011 126.973 221.221 126.702 221.426C126.432 221.631 126.091 221.804 125.68 221.944C125.279 222.075 124.817 222.14 124.294 222.14ZM122.754 217.73H125.848V217.688C125.848 217.324 125.788 217.007 125.666 216.736C125.545 216.456 125.368 216.241 125.134 216.092C124.901 215.933 124.621 215.854 124.294 215.854C123.968 215.854 123.688 215.933 123.454 216.092C123.221 216.241 123.044 216.456 122.922 216.736C122.81 217.007 122.754 217.324 122.754 217.688V217.73ZM132.374 222.14C131.338 222.14 130.517 221.841 129.91 221.244C129.304 220.647 128.977 219.797 128.93 218.696C128.921 218.603 128.916 218.486 128.916 218.346C128.916 218.197 128.921 218.08 128.93 217.996C128.968 217.287 129.126 216.68 129.406 216.176C129.696 215.663 130.092 215.271 130.596 215C131.1 214.72 131.693 214.58 132.374 214.58C133.13 214.58 133.765 214.739 134.278 215.056C134.792 215.364 135.179 215.798 135.44 216.358C135.702 216.909 135.832 217.548 135.832 218.276V218.57C135.832 218.663 135.8 218.743 135.734 218.808C135.669 218.873 135.585 218.906 135.482 218.906H130.834C130.834 218.906 130.834 218.92 130.834 218.948C130.834 218.976 130.834 218.999 130.834 219.018C130.844 219.345 130.904 219.648 131.016 219.928C131.138 220.199 131.31 220.418 131.534 220.586C131.768 220.754 132.043 220.838 132.36 220.838C132.622 220.838 132.841 220.801 133.018 220.726C133.196 220.642 133.34 220.549 133.452 220.446C133.564 220.343 133.644 220.259 133.69 220.194C133.774 220.082 133.84 220.017 133.886 219.998C133.942 219.97 134.022 219.956 134.124 219.956H135.328C135.422 219.956 135.496 219.984 135.552 220.04C135.618 220.096 135.646 220.166 135.636 220.25C135.627 220.399 135.548 220.581 135.398 220.796C135.258 221.011 135.053 221.221 134.782 221.426C134.512 221.631 134.171 221.804 133.76 221.944C133.359 222.075 132.897 222.14 132.374 222.14ZM130.834 217.73H133.928V217.688C133.928 217.324 133.868 217.007 133.746 216.736C133.625 216.456 133.448 216.241 133.214 216.092C132.981 215.933 132.701 215.854 132.374 215.854C132.048 215.854 131.768 215.933 131.534 216.092C131.301 216.241 131.124 216.456 131.002 216.736C130.89 217.007 130.834 217.324 130.834 217.688V217.73ZM137.669 222C137.575 222 137.496 221.967 137.431 221.902C137.365 221.837 137.333 221.757 137.333 221.664V212.396C137.333 212.303 137.365 212.223 137.431 212.158C137.496 212.093 137.575 212.06 137.669 212.06H138.831C138.924 212.06 139.003 212.093 139.069 212.158C139.134 212.223 139.167 212.303 139.167 212.396V221.664C139.167 221.757 139.134 221.837 139.069 221.902C139.003 221.967 138.924 222 138.831 222H137.669Z" fill="white"/>
</mask>
<g mask="url(#mask0_1761_1750)">
<rect x="-78.4313" y="73.1312" width="243.823" height="243.823" rx="121.912" transform="rotate(-52.4881 -78.4313 73.1312)" fill="url(#paint1_radial_1761_1750)" fill-opacity="0.27"/>
<rect x="-96.6163" y="75.5214" width="269.762" height="269.762" rx="134.881" transform="rotate(-52.4881 -96.6163 75.5214)" fill="url(#paint2_radial_1761_1750)" fill-opacity="0.05"/>
<rect x="-96.3236" y="75.4829" width="269.344" height="269.344" rx="134.672" transform="rotate(-52.4881 -96.3236 75.4829)" stroke="#939BB9" stroke-opacity="0.12" stroke-width="0.41756"/>
<g filter="url(#filter0_i_1761_1750)">
<path d="M196.475 125.677C197.691 126.467 198.04 128.096 197.202 129.28C195.83 131.217 194.354 133.079 192.781 134.856C191.82 135.942 190.154 135.973 189.107 134.969C188.061 133.965 188.031 132.307 188.989 131.218C190.338 129.683 191.609 128.081 192.796 126.417C193.638 125.236 195.259 124.887 196.475 125.677Z" fill="url(#paint3_linear_1761_1750)"/>
<path d="M204.359 113.19C205.658 113.834 206.195 115.412 205.5 116.684C204.362 118.768 203.111 120.789 201.755 122.737C200.926 123.927 199.274 124.152 198.119 123.276C196.963 122.4 196.741 120.757 197.565 119.564C198.728 117.882 199.804 116.143 200.79 114.352C201.489 113.082 203.059 112.547 204.359 113.19Z" fill="#4764D6"/>
<path d="M210.749 99.6761C212.114 100.164 212.83 101.669 212.288 103.014C211.4 105.216 210.392 107.368 209.271 109.461C208.586 110.739 206.972 111.154 205.722 110.418C204.472 109.683 204.061 108.076 204.742 106.795C205.701 104.99 206.568 103.137 207.339 101.244C207.887 99.9014 209.384 99.1878 210.749 99.6761Z" fill="#596180"/>
<path d="M215.527 85.5111C216.94 85.8376 217.826 87.2493 217.443 88.6479C216.817 90.9381 216.066 93.1925 215.195 95.4014C214.663 96.7504 213.108 97.3494 211.781 96.764C210.455 96.1786 209.86 94.6305 210.387 93.2797C211.13 91.3753 211.776 89.4344 212.323 87.4644C212.71 86.0672 214.115 85.1846 215.527 85.5111Z" fill="#E1B850"/>
<path d="M218.629 70.8876C220.07 71.0479 221.114 72.3471 220.896 73.7807C220.54 76.1282 220.056 78.4545 219.447 80.7496C219.076 82.1512 217.6 82.9267 216.215 82.4992C214.829 82.0718 214.058 80.6032 214.425 79.2004C214.942 77.2226 215.359 75.2198 215.673 73.1997C215.896 71.7669 217.188 70.7273 218.629 70.8876Z" fill="#596180"/>
<path d="M220.012 56.0023C221.462 55.9942 222.65 57.1635 222.6 58.6126C222.518 60.9856 222.308 63.3524 221.97 65.7026C221.763 67.1378 220.388 68.0794 218.962 67.8157C217.536 67.552 216.6 66.1829 216.802 64.7469C217.086 62.7224 217.267 60.6848 217.344 58.642C217.399 57.193 218.562 56.0104 220.012 56.0023Z" fill="#E1B850"/>
<path d="M219.658 41.0574C221.097 40.881 222.412 41.9045 222.531 43.3497C222.726 45.7161 222.791 48.0913 222.728 50.4649C222.69 51.9144 221.433 53.0092 219.987 52.9128C218.54 52.8164 217.451 51.5652 217.484 50.1156C217.532 48.0718 217.475 46.027 217.315 43.989C217.201 42.5434 218.219 41.2338 219.658 41.0574Z" fill="#596180"/>
<path d="M217.57 26.2547C218.979 25.9123 220.405 26.7763 220.69 28.1979C221.158 30.5257 221.499 32.8772 221.712 35.242C221.842 36.6862 220.721 37.9195 219.273 37.9917C217.825 38.064 216.598 36.9476 216.463 35.5039C216.273 33.4685 215.979 31.4441 215.583 29.4384C215.303 28.0158 216.161 26.597 217.57 26.2547Z" fill="#E1B850"/>
<path d="M213.779 11.7942C215.139 11.2906 216.654 11.9832 217.103 13.362C217.838 15.6198 218.45 17.9158 218.936 20.2399C219.233 21.6592 218.263 23.0143 216.833 23.2542C215.403 23.4941 214.055 22.5277 213.753 21.1094C213.327 19.1099 212.801 17.1332 212.175 15.1871C211.731 13.8067 212.419 12.2977 213.779 11.7942Z" fill="#596180"/>
<path d="M208.334 -2.12806C209.627 -2.7861 211.213 -2.27414 211.818 -0.956737C212.81 1.20048 213.685 3.40993 214.437 5.66187C214.897 7.03713 214.091 8.4957 212.698 8.89995C211.306 9.30421 209.855 8.50086 209.39 7.12721C208.735 5.19058 207.983 3.28845 207.135 1.42817C206.534 0.108663 207.042 -1.47004 208.334 -2.12806Z" fill="#4764D6"/>
<path d="M0.150844 141.983C-0.838302 143.043 -2.50376 143.104 -3.52364 142.074C-5.19365 140.386 -6.77086 138.609 -8.2483 136.75C-9.15056 135.615 -8.89176 133.968 -7.72146 133.112C-6.55117 132.256 -4.91289 132.515 -4.00668 133.647C-2.72906 135.243 -1.37124 136.773 0.0615567 138.231C1.07784 139.265 1.13998 140.922 0.150844 141.983Z" fill="#E1B850"/>
<path d="M11.2645 151.981C10.4052 153.149 8.75809 153.403 7.62544 152.498C5.77077 151.015 3.99791 149.433 2.31467 147.758C1.28673 146.736 1.35266 145.07 2.41564 144.084C3.47863 143.098 5.13586 143.165 6.16736 144.184C7.6216 145.621 9.14787 146.983 10.7403 148.265C11.8697 149.174 12.1239 150.813 11.2645 151.981Z" fill="#596180"/>
<path d="M23.4641 160.621C22.7461 161.881 21.1397 162.324 19.9096 161.557C17.8953 160.299 15.9508 158.934 14.0845 157.466C12.9448 156.569 12.817 154.908 13.7583 153.805C14.6996 152.702 16.3533 152.576 17.4962 153.468C19.1074 154.726 20.7815 155.902 22.5119 156.99C23.7393 157.762 24.182 159.361 23.4641 160.621Z" fill="#E1B850"/>
<path d="M36.584 167.786C36.0172 169.121 34.4732 169.748 33.1623 169.128C31.0157 168.114 28.9258 166.983 26.9017 165.742C25.6656 164.984 25.3457 163.348 26.1526 162.143C26.9595 160.938 28.5874 160.621 29.8262 161.375C31.5726 162.438 33.3718 163.411 35.2169 164.291C36.5256 164.915 37.1509 166.452 36.584 167.786Z" fill="#596180"/>
<path d="M50.4476 173.381C50.0395 174.772 48.5787 175.574 47.2047 175.111C44.9548 174.352 42.7478 173.472 40.5933 172.474C39.2776 171.864 38.77 170.277 39.4315 168.987C40.0931 167.696 41.6732 167.192 42.991 167.797C44.849 168.65 46.7491 169.408 48.6839 170.068C50.0563 170.536 50.8556 171.989 50.4476 173.381Z" fill="#4764D6"/>
<path d="M64.8661 177.327C64.6223 178.756 63.2646 179.723 61.8461 179.422C59.5233 178.93 57.229 178.311 54.9732 177.57C53.5957 177.118 52.9072 175.6 53.4145 174.242C53.9218 172.883 55.4327 172.199 56.8118 172.647C58.7562 173.278 60.7314 173.81 62.7298 174.241C64.1472 174.547 65.1099 175.898 64.8661 177.327Z" fill="#596180"/>
<path d="M79.6453 179.573C79.5691 181.021 78.3327 182.138 76.8889 182.004C74.5247 181.785 72.1741 181.437 69.8476 180.963C68.4268 180.673 67.5668 179.246 67.9129 177.838C68.2591 176.43 69.6803 175.575 71.1022 175.859C73.1067 176.261 75.1303 176.56 77.1652 176.756C78.6085 176.895 79.7215 178.125 79.6453 179.573Z" fill="#4764D6"/>
<path d="M94.5858 180.088C94.6783 181.535 93.58 182.789 92.1304 182.823C89.7566 182.88 87.3816 182.807 85.0158 182.606C83.5709 182.484 82.551 181.166 82.7314 179.727C82.9117 178.288 84.2241 177.274 85.6693 177.392C87.7069 177.557 89.7516 177.62 91.7955 177.578C93.2452 177.549 94.4934 178.641 94.5858 180.088Z" fill="#596180"/>
<path d="M109.485 178.865C109.745 180.292 108.799 181.664 107.363 181.867C105.012 182.198 102.645 182.402 100.272 182.477C98.8225 182.523 97.6564 181.333 97.6685 179.883C97.6806 178.433 98.8664 177.273 100.316 177.222C102.359 177.15 104.397 176.975 106.422 176.696C107.858 176.499 109.225 177.439 109.485 178.865Z" fill="#E1B850"/>
<path d="M124.141 175.92C124.565 177.307 123.785 178.78 122.382 179.148C120.086 179.75 117.758 180.228 115.41 180.578C113.975 180.792 112.679 179.744 112.523 178.303C112.366 176.861 113.41 175.572 114.843 175.353C116.864 175.044 118.868 174.634 120.847 174.122C122.251 173.759 123.717 174.534 124.141 175.92Z" fill="#596180"/>
<path d="M138.357 171.295C138.938 172.623 138.335 174.176 136.985 174.705C134.773 175.57 132.517 176.314 130.225 176.934C128.825 177.313 127.416 176.423 127.093 175.01C126.771 173.596 127.657 172.194 129.056 171.811C131.027 171.269 132.97 170.629 134.876 169.891C136.228 169.367 137.775 169.967 138.357 171.295Z" fill="#E1B850"/>
<path d="M151.939 165.05C152.671 166.302 152.252 167.915 150.972 168.596C148.876 169.712 146.721 170.713 144.517 171.596C143.17 172.134 141.668 171.414 141.183 170.048C140.698 168.681 141.416 167.186 142.76 166.642C144.656 165.876 146.511 165.014 148.319 164.06C149.601 163.383 151.207 163.798 151.939 165.05Z" fill="#596180"/>
<path d="M164.705 157.271C165.577 158.429 165.348 160.08 164.156 160.905C162.204 162.257 160.18 163.501 158.093 164.634C156.818 165.325 155.242 164.784 154.602 163.483C153.962 162.182 154.501 160.613 155.773 159.918C157.567 158.936 159.309 157.865 160.994 156.707C162.189 155.886 163.832 156.112 164.705 157.271Z" fill="#E1B850"/>
<path d="M176.481 148.062C177.482 149.111 177.446 150.777 176.358 151.736C174.576 153.305 172.71 154.776 170.768 156.143C169.583 156.977 167.954 156.623 167.167 155.405C166.381 154.187 166.734 152.567 167.917 151.728C169.584 150.545 171.191 149.279 172.73 147.933C173.821 146.979 175.48 147.013 176.481 148.062Z" fill="#596180"/>
<path d="M187.108 137.548C188.224 138.474 188.382 140.133 187.412 141.211C185.824 142.976 184.142 144.654 182.372 146.237C181.291 147.204 179.633 147.041 178.71 145.923C177.787 144.804 177.95 143.154 179.027 142.183C180.546 140.815 181.995 139.37 183.367 137.855C184.341 136.781 185.992 136.622 187.108 137.548Z" fill="#4764D6"/>
</g>
</g>
<defs>
<filter id="filter0_i_1761_1750" x="-39.6767" y="-79.6953" width="262.428" height="264.207" filterUnits="userSpaceOnUse" color-interpolation-filters="sRGB">
<feFlood flood-opacity="0" result="BackgroundImageFix"/>
<feBlend mode="normal" in="SourceGraphic" in2="BackgroundImageFix" result="shape"/>
<feColorMatrix in="SourceAlpha" type="matrix" values="0 0 0 0 0 0 0 0 0 0 0 0 0 0 0 0 0 0 127 0" result="hardAlpha"/>
<feOffset dy="1.67024"/>
<feGaussianBlur stdDeviation="0.83512"/>
<feComposite in2="hardAlpha" operator="arithmetic" k2="-1" k3="1"/>
<feColorMatrix type="matrix" values="0 0 0 0 0 0 0 0 0 0 0 0 0 0 0 0 0 0 0.15 0"/>
<feBlend mode="normal" in2="shape" result="effect1_innerShadow_1761_1750"/>
</filter>
<radialGradient id="paint0_radial_1761_1750" cx="0" cy="0" r="1" gradientUnits="userSpaceOnUse" gradientTransform="translate(228 65) rotate(-153.435) scale(281.745 559.225)">
<stop stop-color="#13AAFF"/>
<stop offset="0.475043" stop-opacity="0"/>
</radialGradient>
<radialGradient id="paint1_radial_1761_1750" cx="0" cy="0" r="1" gradientUnits="userSpaceOnUse" gradientTransform="translate(43.4804 195.043) rotate(90) scale(140.501)">
<stop stop-color="#4764D6"/>
<stop offset="1" stop-opacity="0"/>
</radialGradient>
<radialGradient id="paint2_radial_1761_1750" cx="0" cy="0" r="1" gradientUnits="userSpaceOnUse" gradientTransform="translate(38.2647 210.402) rotate(90) scale(155.448)">
<stop stop-color="#4764D6"/>
<stop offset="1" stop-opacity="0"/>
</radialGradient>
<linearGradient id="paint3_linear_1761_1750" x1="196.067" y1="137.266" x2="200.596" y2="123.183" gradientUnits="userSpaceOnUse">
<stop stop-color="#FE4747"/>
<stop offset="1" stop-color="#FFC700"/>
</linearGradient>
</defs>
</svg>
