<svg width="18" height="18" viewBox="0 0 18 18" fill="none" xmlns="http://www.w3.org/2000/svg">
<path d="M8.18165 12.2169L5.59703 10.0386L5.0615 10.674C4.74509 10.4918 4.38874 10.3867 4.01331 10.3867C3.44888 10.3867 2.91949 10.6056 2.52191 11.0031L6.9966 15.4778C7.68454 14.7899 7.78878 13.7441 7.32588 12.9381L8.18165 12.2169Z" fill="#939BB9"/>
<path d="M13.9861 10.3869C13.6117 10.3869 13.2565 10.4914 12.9409 10.6726L3.93395 0H0V3.93395L10.6727 12.9409C10.2114 13.7466 10.3161 14.7908 11.0033 15.478L15.478 11.0033C15.0804 10.6057 14.5505 10.3869 13.9861 10.3869ZM5.64385 6.38955L1.88019 2.62589L2.62589 1.88019L6.38955 5.64385L5.64385 6.38955Z" fill="#939BB9"/>
<path d="M16.3272 14.8362L14.7322 13.2407L13.2404 14.7325L14.8359 16.3275V18.0003H18V14.8362H16.3272Z" fill="#939BB9"/>
<path d="M3.26772 13.2407L1.67275 14.8362H-6.10352e-05V18.0003H3.164V16.3276L4.7595 14.7325L3.26772 13.2407Z" fill="#939BB9"/>
<path d="M14.0635 0L9.68964 5.18302L12.5297 8.55264L18 3.93655V0H14.0635ZM12.3562 6.38955L11.6105 5.64385L15.3741 1.88019L16.1198 2.62589L12.3562 6.38955Z" fill="#939BB9"/>
</svg>
