<svg width="22" height="22" viewBox="0 0 22 22" fill="none" xmlns="http://www.w3.org/2000/svg">
<path d="M18.8996 0.834473H3.93496C2.90917 0.834473 2.07471 1.66894 2.07471 2.69472V9.59832H4.35633C4.77906 9.05067 5.17595 8.97907 5.80852 8.80991C6.02166 8.75298 6.19004 8.58465 6.24692 8.37151C6.75022 6.48951 7.79291 6.3058 9.1604 6.67157C9.37479 6.72667 9.60368 6.66731 9.75928 6.51109C11.124 5.14633 12.045 5.48084 13.0753 6.51109C13.2303 6.66731 13.4568 6.72605 13.6748 6.67157C15.5172 6.17819 16.2113 6.96421 16.5876 8.37151C16.6446 8.58465 16.8129 8.75303 17.026 8.80991C17.6586 8.97907 18.0555 9.05071 18.4782 9.59832H20.7599V2.69472C20.7599 1.66894 19.9254 0.834473 18.8996 0.834473ZM8.1352 5.6548C7.89299 5.897 7.50056 5.897 7.25836 5.6548L5.97685 4.37329C5.73465 4.13109 5.73465 3.73866 5.97685 3.49645C6.21906 3.25425 6.65283 3.25425 6.89503 3.49645L8.1352 4.73662C8.37745 4.97886 8.37745 5.41259 8.1352 5.6548ZM12.0374 3.93489C12.0374 4.27763 11.76 4.55498 11.4173 4.55498C11.0746 4.55498 10.7972 4.27763 10.7972 3.93489V2.69472C10.7972 2.35198 11.0746 2.07464 11.4173 2.07464C11.76 2.07464 12.0374 2.35198 12.0374 2.69472V3.93489ZM16.8577 4.37329L15.6175 5.6548C15.3753 5.897 14.9416 5.897 14.6994 5.6548C14.4572 5.41259 14.4572 4.97882 14.6994 4.73662L15.9809 3.49645C16.2231 3.25425 16.6155 3.25425 16.8577 3.49645C17.0999 3.73866 17.1 4.13109 16.8577 4.37329Z" fill="url(#paint0_linear_1874_2252)"/>
<path d="M1.45456 18.2793C1.24224 18.2793 1.03493 18.3012 0.834473 18.342C0.834473 19.0019 0.834473 19.4935 0.834473 20.1395C0.834473 21.1653 1.66894 21.9998 2.69472 21.9998C3.29633 21.9998 3.89136 21.9998 4.49222 21.9998C4.53311 21.7993 4.55498 21.592 4.55498 21.3797C4.55498 19.6702 3.16404 18.2793 1.45456 18.2793Z" fill="url(#paint1_linear_1874_2252)"/>
<path d="M18.2797 14.5591H14.4553C14.1677 15.9737 12.9165 17.0394 11.4174 17.0394C9.9184 17.0394 8.66716 15.9737 8.3796 14.5591H4.55518V18.3519C5.3199 19.1348 5.79534 20.2019 5.79534 21.38C5.79534 21.5923 5.76227 21.7958 5.73267 22.0001C9.50237 22.0001 13.3461 22.0001 17.1022 22.0001C17.0726 21.7958 17.0395 21.5923 17.0395 21.38C17.0395 20.2019 17.515 19.1348 18.2797 18.3519V14.5591Z" fill="url(#paint2_linear_1874_2252)"/>
<path d="M21.3797 18.2793C19.6702 18.2793 18.2793 19.6702 18.2793 21.3797C18.2793 21.592 18.3012 21.7993 18.342 21.9998C18.9403 21.9998 19.5413 21.9998 20.1395 21.9998C21.1653 21.9998 21.9998 21.1653 21.9998 20.1395C21.9998 19.4948 21.9998 19.0007 21.9998 18.342C21.7993 18.3012 21.592 18.2793 21.3797 18.2793Z" fill="url(#paint3_linear_1874_2252)"/>
<path d="M20.1397 10.8384C16.6186 10.8384 6.80708 10.8384 2.69472 10.8384C1.66894 10.8384 0.834473 11.6728 0.834473 12.6986C0.834473 14.8467 0.834473 16.2204 0.834473 17.1019C1.03877 17.0723 1.24224 17.0392 1.45456 17.0392C2.1228 17.0392 2.74875 17.2036 3.31481 17.4746V12.0785H4.55498V13.3187H8.31682V12.0785H9.55698V13.9388C9.55698 14.9681 10.3879 15.799 11.4172 15.799C12.4466 15.799 13.2775 14.9681 13.2775 13.9388C13.2775 13.2789 13.2775 12.7277 13.2775 12.0785H14.5177V13.3187H18.2795V12.0785H19.5197C19.5197 15.1278 19.5197 14.4382 19.5197 17.4746C20.0857 17.2036 20.7117 17.0392 21.3799 17.0392C21.5922 17.0392 21.7957 17.0723 22 17.1019C22 16.2207 22 14.847 22 12.6986C22 11.6728 21.1655 10.8384 20.1397 10.8384ZM11.4112 14.571C11.0685 14.571 10.7851 14.2876 10.7851 13.9449C10.7851 13.6021 11.0685 13.3187 11.4112 13.3187C11.7539 13.3187 12.0373 13.6021 12.0373 13.9448C12.0373 14.2876 11.7539 14.571 11.4112 14.571Z" fill="url(#paint4_linear_1874_2252)"/>
<defs>
<linearGradient id="paint0_linear_1874_2252" x1="28.0223" y1="-1.46604" x2="12.7704" y2="37.5212" gradientUnits="userSpaceOnUse">
<stop stop-color="#FFB546"/>
<stop offset="0.222485" stop-color="#FFB546"/>
<stop offset="0.303339" stop-color="#E29727"/>
<stop offset="0.376029" stop-color="#D28615"/>
<stop offset="0.448225" stop-color="#CA7E0D"/>
<stop offset="0.51973" stop-color="#F5AA3B"/>
<stop offset="0.606565" stop-color="#C77B0A"/>
<stop offset="0.667378" stop-color="#D08413"/>
<stop offset="0.764676" stop-color="#DF9424"/>
<stop offset="0.855482" stop-color="#FFB546"/>
</linearGradient>
<linearGradient id="paint1_linear_1874_2252" x1="6.00103" y1="17.3027" x2="-3.38613" y2="28.5572" gradientUnits="userSpaceOnUse">
<stop stop-color="#FFB546"/>
<stop offset="0.222485" stop-color="#FFB546"/>
<stop offset="0.303339" stop-color="#E29727"/>
<stop offset="0.376029" stop-color="#D28615"/>
<stop offset="0.448225" stop-color="#CA7E0D"/>
<stop offset="0.51973" stop-color="#F5AA3B"/>
<stop offset="0.606565" stop-color="#C77B0A"/>
<stop offset="0.667378" stop-color="#D08413"/>
<stop offset="0.764676" stop-color="#DF9424"/>
<stop offset="0.855482" stop-color="#FFB546"/>
</linearGradient>
<linearGradient id="paint2_linear_1874_2252" x1="23.614" y1="12.6058" x2="9.28429" y2="44.2941" gradientUnits="userSpaceOnUse">
<stop stop-color="#FFB546"/>
<stop offset="0.222485" stop-color="#FFB546"/>
<stop offset="0.303339" stop-color="#E29727"/>
<stop offset="0.376029" stop-color="#D28615"/>
<stop offset="0.448225" stop-color="#CA7E0D"/>
<stop offset="0.51973" stop-color="#F5AA3B"/>
<stop offset="0.606565" stop-color="#C77B0A"/>
<stop offset="0.667378" stop-color="#D08413"/>
<stop offset="0.764676" stop-color="#DF9424"/>
<stop offset="0.855482" stop-color="#FFB546"/>
</linearGradient>
<linearGradient id="paint3_linear_1874_2252" x1="23.4459" y1="17.3027" x2="14.0587" y2="28.5572" gradientUnits="userSpaceOnUse">
<stop stop-color="#FFB546"/>
<stop offset="0.222485" stop-color="#FFB546"/>
<stop offset="0.303339" stop-color="#E29727"/>
<stop offset="0.376029" stop-color="#D28615"/>
<stop offset="0.448225" stop-color="#CA7E0D"/>
<stop offset="0.51973" stop-color="#F5AA3B"/>
<stop offset="0.606565" stop-color="#C77B0A"/>
<stop offset="0.667378" stop-color="#D08413"/>
<stop offset="0.764676" stop-color="#DF9424"/>
<stop offset="0.855482" stop-color="#FFB546"/>
</linearGradient>
<linearGradient id="paint4_linear_1874_2252" x1="30.2264" y1="9.09637" x2="21.8943" y2="40.9576" gradientUnits="userSpaceOnUse">
<stop stop-color="#FFB546"/>
<stop offset="0.222485" stop-color="#FFB546"/>
<stop offset="0.303339" stop-color="#E29727"/>
<stop offset="0.376029" stop-color="#D28615"/>
<stop offset="0.448225" stop-color="#CA7E0D"/>
<stop offset="0.51973" stop-color="#F5AA3B"/>
<stop offset="0.606565" stop-color="#C77B0A"/>
<stop offset="0.667378" stop-color="#D08413"/>
<stop offset="0.764676" stop-color="#DF9424"/>
<stop offset="0.855482" stop-color="#FFB546"/>
</linearGradient>
</defs>
</svg>
