<svg width="31" height="32" viewBox="0 0 31 32" fill="none" xmlns="http://www.w3.org/2000/svg">
<path d="M0.95459 4.49683L2.23868 3.21274L4.91238 5.88644L3.62829 7.17053L0.95459 4.49683Z" fill="#4765D6"/>
<path d="M0 9.58252H3.69699V11.399H0V9.58252Z" fill="#4765D6"/>
<path d="M0.975586 16.4619L3.64663 13.7909L4.93072 15.075L2.25968 17.746L0.975586 16.4619Z" fill="#4765D6"/>
<path d="M26.082 5.88904L28.7557 3.21534L30.0398 4.49943L27.3661 7.17313L26.082 5.88904Z" fill="#4765D6"/>
<path d="M27.3027 9.58252H30.9997V11.399H27.3027V9.58252Z" fill="#4765D6"/>
<path d="M26.064 15.0778L27.3481 13.7937L30.0191 16.4647L28.735 17.7488L26.064 15.0778Z" fill="#4765D6"/>
<path d="M15.5001 31.5007C18.0039 31.5007 20.0412 29.4635 20.0412 26.9596V24.1139H10.959V26.9596C10.959 29.4635 12.9962 31.5007 15.5001 31.5007Z" fill="#4765D6"/>
<path d="M25.3388 8.72626C24.5139 3.95994 20.3764 0.5 15.501 0.5C10.6255 0.5 6.48799 3.95994 5.66315 8.72717C5.09194 12.0301 6.1838 15.3783 8.5838 17.6816C9.86941 18.9159 10.6508 20.5646 10.8655 22.2972H20.1365C20.3516 20.5639 21.1327 18.9157 22.4181 17.6816C24.8182 15.3783 25.91 12.0301 25.3388 8.72626ZM16.4092 16.8479H14.5927V15.0315H16.4092V16.8479ZM17.1153 10.869C16.6731 11.1946 16.4092 11.716 16.4092 12.264V13.215H14.5927V12.264C14.5927 11.141 15.1331 10.0727 16.0383 9.40628C16.274 9.23275 16.4092 8.96585 16.4092 8.67395C16.4092 8.17316 16.0017 7.76573 15.501 7.76573C15.0002 7.76573 14.5927 8.17316 14.5927 8.67395V9.58217H12.7763V8.67395C12.7763 7.17158 13.9986 5.9493 15.501 5.9493C17.0033 5.9493 18.2256 7.17158 18.2256 8.67395C18.2256 9.53652 17.8105 10.3571 17.1153 10.869Z" fill="#4765D6"/>
</svg>
