<svg width="29" height="29" viewBox="0 0 29 29" fill="none" xmlns="http://www.w3.org/2000/svg">
<path d="M14.5 0C11.6322 0 8.82875 0.85041 6.44424 2.44369C4.05972 4.03697 2.20122 6.30156 1.10375 8.95109C0.0062826 11.6006 -0.280866 14.5161 0.27862 17.3288C0.838105 20.1415 2.2191 22.7252 4.24696 24.753C6.27482 26.7809 8.85847 28.1619 11.6712 28.7214C14.4839 29.2809 17.3994 28.9937 20.0489 27.8962C22.6984 26.7988 24.963 24.9403 26.5563 22.5558C28.1496 20.1712 29 17.3678 29 14.5C29 10.6544 27.4723 6.96623 24.753 4.24695C22.0338 1.52767 18.3456 0 14.5 0ZM21.9675 10.5746L12.6461 19.8961C12.5493 19.9921 12.4345 20.068 12.3083 20.1195C12.1821 20.1711 12.047 20.1972 11.9107 20.1964H11.8486C11.7036 20.1868 11.5623 20.1468 11.4339 20.079C11.3054 20.0112 11.1926 19.9171 11.1029 19.8029L6.96 14.6243C6.86156 14.52 6.78585 14.3964 6.73766 14.2613C6.68948 14.1262 6.66988 13.9826 6.6801 13.8395C6.69031 13.6965 6.73013 13.5571 6.79703 13.4303C6.86392 13.3034 6.95644 13.1918 7.06871 13.1026C7.18098 13.0133 7.31056 12.9484 7.44925 12.9118C7.58793 12.8753 7.7327 12.8679 7.87437 12.8902C8.01604 12.9126 8.15153 12.9641 8.27226 13.0415C8.39299 13.1189 8.49633 13.2206 8.57572 13.34L11.9936 17.6071L20.4968 9.10393C20.6918 8.9089 20.9563 8.79933 21.2321 8.79933C21.508 8.79933 21.7725 8.9089 21.9675 9.10393C22.1625 9.29895 22.2721 9.56347 22.2721 9.83928C22.2721 10.1151 22.1625 10.3796 21.9675 10.5746Z" fill="#1EDE5F"/>
</svg>
