<svg width="10" height="10" viewBox="0 0 10 10" fill="none" xmlns="http://www.w3.org/2000/svg">
<path d="M0.395683 10C0.28777 10 0.191847 9.96154 0.107914 9.88461C0.0359712 9.79487 0 9.6859 0 9.55769C0 9.45513 0.029976 9.35897 0.0899281 9.26923L3.09353 4.86538L0.359712 0.730769C0.28777 0.628206 0.251799 0.525641 0.251799 0.423077C0.251799 0.307692 0.293765 0.211539 0.377698 0.134616C0.461631 0.044872 0.557554 0 0.665468 0H2.85971C3.07554 0 3.2494 0.108974 3.38129 0.326923L5.05396 2.78846L6.70863 0.346154C6.78058 0.24359 6.85252 0.160256 6.92446 0.0961537C6.9964 0.0320512 7.10432 0 7.2482 0H9.35252C9.46043 0 9.55036 0.044872 9.6223 0.134616C9.70623 0.211539 9.7482 0.307692 9.7482 0.423077C9.7482 0.551282 9.71823 0.653846 9.65827 0.730769L6.85252 4.86538L9.91007 9.26923C9.97002 9.35897 10 9.45513 10 9.55769C10 9.6859 9.95803 9.79487 9.8741 9.88461C9.80216 9.96154 9.71223 10 9.60432 10H7.30216C7.09832 10 6.93046 9.89744 6.79856 9.69231L4.98201 7.05769L3.14748 9.69231C3.07554 9.79487 3.0036 9.87179 2.93165 9.92308C2.85971 9.97436 2.76379 10 2.64388 10H0.395683Z" fill="#5A67A3"/>
</svg>
