<svg width="41" height="41" viewBox="0 0 41 41" fill="none" xmlns="http://www.w3.org/2000/svg">
<path d="M20.5 40.5C9.45431 40.5 0.5 31.5457 0.5 20.5C0.5 9.45431 9.45431 0.5 20.5 0.5C31.5457 0.5 40.5 9.45431 40.5 20.5C40.5 31.5457 31.5457 40.5 20.5 40.5Z" fill="#513E35"/>
<path d="M20.5 40.5C9.45431 40.5 0.5 31.5457 0.5 20.5C0.5 9.45431 9.45431 0.5 20.5 0.5C31.5457 0.5 40.5 9.45431 40.5 20.5C40.5 31.5457 31.5457 40.5 20.5 40.5Z" fill="url(#paint0_linear_146_3328)" fill-opacity="0.25"/>
<path d="M20.5 40.5C9.45431 40.5 0.5 31.5457 0.5 20.5C0.5 9.45431 9.45431 0.5 20.5 0.5C31.5457 0.5 40.5 9.45431 40.5 20.5C40.5 31.5457 31.5457 40.5 20.5 40.5Z" stroke="#95633F"/>
<defs>
<linearGradient id="paint0_linear_146_3328" x1="56.9831" y1="1.44061e-06" x2="-13.0325" y2="1.54659" gradientUnits="userSpaceOnUse">
<stop stop-color="#A47161"/>
<stop offset="1" stop-color="#645B4E"/>
</linearGradient>
</defs>
</svg>
