<svg width="29" height="30" viewBox="0 0 29 30" fill="none" xmlns="http://www.w3.org/2000/svg">
<path d="M28.6363 6.81245L25.0651 10.3837H22.3918H20.9276L20.2749 11.0364L17.7923 13.519L16.2454 15.066L14.9373 16.374C14.7417 16.5697 14.4853 16.6675 14.2289 16.6675C13.963 16.6675 13.6969 16.5623 13.4989 16.3519C13.1228 15.9525 13.1622 15.3153 13.55 14.9273L16.1526 12.3248L16.3519 12.1255L18.8453 9.63206L19.5106 8.96678V7.54034V4.82933L20.7454 3.59451L23.0818 1.25807C23.1127 1.22718 23.1451 1.20021 23.1783 1.17505C23.1862 1.16904 23.1941 1.16317 23.2022 1.15744C23.2353 1.13396 23.2691 1.11229 23.3038 1.09412C23.3066 1.09259 23.3095 1.09161 23.3124 1.09007C23.3453 1.07344 23.3787 1.05946 23.4125 1.0473C23.421 1.04423 23.4294 1.04115 23.4379 1.03836C23.4739 1.02676 23.5102 1.01697 23.5468 1.01027C23.5518 1.00929 23.557 1.00901 23.5621 1.00803C23.595 1.00258 23.628 0.999225 23.6611 0.997548C23.6697 0.997128 23.6781 0.996569 23.6866 0.99629C23.7235 0.995591 23.7602 0.996709 23.7967 1.00048C23.8027 1.00118 23.8087 1.0023 23.8147 1.003C23.8463 1.00691 23.8778 1.01264 23.9087 1.01991C23.9173 1.02201 23.9261 1.02382 23.9348 1.02606C23.9702 1.03542 24.0051 1.04647 24.0389 1.05988C24.044 1.06184 24.0487 1.06436 24.0536 1.06631C24.0834 1.07875 24.1123 1.09287 24.1405 1.10838C24.1486 1.11285 24.1567 1.11719 24.1646 1.1218C24.1962 1.14039 24.2269 1.16037 24.2561 1.1826C24.2596 1.18525 24.2628 1.18833 24.2662 1.19098C24.2922 1.21153 24.3169 1.23361 24.3407 1.25709C24.3474 1.26366 24.3541 1.27023 24.3605 1.27708C24.3861 1.30405 24.4106 1.33214 24.4328 1.36247C24.4346 1.36499 24.4361 1.36778 24.4381 1.37044C24.4584 1.39881 24.4765 1.42872 24.4934 1.45975C24.4981 1.46827 24.5027 1.4768 24.507 1.48561C24.5242 1.51999 24.5401 1.55549 24.5528 1.59294C24.5534 1.59476 24.5538 1.59658 24.5544 1.5984C24.5664 1.63431 24.5755 1.67177 24.5829 1.71021C24.5848 1.72041 24.5867 1.73075 24.5883 1.74109C24.5948 1.78219 24.5997 1.82411 24.6006 1.86786L24.6723 5.22165L24.744 5.22319L28.026 5.29335C28.2031 5.29712 28.3582 5.35023 28.4881 5.43395C28.5377 5.46596 28.5848 5.5009 28.6263 5.54143C28.6862 5.60013 28.7374 5.6668 28.7785 5.73906C28.8196 5.81132 28.8509 5.88902 28.8711 5.96967C28.9423 6.25227 28.8788 6.5701 28.6363 6.81245ZM14.0521 8.0147C9.67799 8.0147 6.11931 11.5734 6.11931 15.9475C6.11931 20.3215 9.67799 23.8802 14.0521 23.8802C18.4261 23.8802 21.9848 20.3215 21.9848 15.9475C21.9848 14.8685 21.7664 13.8404 21.374 12.9023L18.5073 15.769C18.5097 15.8285 18.5139 15.8875 18.5139 15.9476C18.5139 18.408 16.5123 20.4096 14.0519 20.4096C11.5915 20.4096 9.58994 18.4079 9.58994 15.9476C9.58994 13.4958 11.5778 11.5003 14.0262 11.4863L16.9488 8.5637C16.0511 8.20981 15.074 8.0147 14.0521 8.0147ZM26.5474 11.8662C26.1543 12.2593 25.6211 12.4802 25.0649 12.4802H23.461C23.861 13.5613 24.0813 14.7288 24.0813 15.9473C24.0813 21.4775 19.5823 25.9765 14.0521 25.9765C8.52186 25.9765 4.02284 21.4775 4.02284 15.9473C4.02284 10.4171 8.52186 5.9181 14.0521 5.9181C15.2314 5.9181 16.3626 6.12481 17.4141 6.50105V4.82933C17.4141 4.27335 17.6349 3.74001 18.0281 3.34685L18.6913 2.68367C17.2381 2.17394 15.6771 1.89539 14.0519 1.89539C6.30366 1.89553 0 8.19919 0 15.9475C0 23.6957 6.3038 29.9995 14.0521 29.9995C21.8003 29.9995 28.1041 23.6957 28.1041 15.9475C28.1041 14.2644 27.8056 12.6501 27.2604 11.1534L26.5474 11.8662Z" fill="url(#paint0_linear_1877_5199)"/>
<defs>
<linearGradient id="paint0_linear_1877_5199" x1="40.1306" y1="-6.6173" x2="-33.0947" y2="80.8576" gradientUnits="userSpaceOnUse">
<stop stop-color="#FFB546"/>
<stop offset="0.222485" stop-color="#FFB546"/>
<stop offset="0.303339" stop-color="#E29727"/>
<stop offset="0.376029" stop-color="#D28615"/>
<stop offset="0.448225" stop-color="#CA7E0D"/>
<stop offset="0.51973" stop-color="#F5AA3B"/>
<stop offset="0.606565" stop-color="#C77B0A"/>
<stop offset="0.667378" stop-color="#D08413"/>
<stop offset="0.764676" stop-color="#DF9424"/>
<stop offset="0.855482" stop-color="#FFB546"/>
</linearGradient>
</defs>
</svg>
