<svg width="73" height="73" viewBox="0 0 73 73" fill="none" xmlns="http://www.w3.org/2000/svg">
<path d="M68.2858 48.2067L18.0801 57.0594C14.9781 57.6063 12.0202 55.5351 11.4733 52.4333L5.94697 21.0922C5.40004 17.9903 7.47127 15.0324 10.5731 14.4854L60.7788 5.63276C63.8807 5.08583 66.8387 7.15706 67.3856 10.2588L72.9119 41.5999C73.459 44.7017 71.3878 47.6598 68.2858 48.2067Z" fill="#3555A2"/>
<path d="M60.7796 5.63276L35.6768 10.0591L43.1836 52.6332L68.2865 48.2069C71.3884 47.6599 73.4597 44.702 72.9126 41.6001L67.3863 10.259C66.8395 7.15706 63.8816 5.08583 60.7796 5.63276Z" fill="#1B3555"/>
<path d="M55.6055 67.4549H5.70312C2.55343 67.4549 0 64.9015 0 61.7518V30.71C0 27.5603 2.55343 25.0068 5.70312 25.0068H55.6055C58.7552 25.0068 61.3086 27.5603 61.3086 30.71V61.7518C61.3086 64.9015 58.7552 67.4549 55.6055 67.4549Z" fill="#53D8E3"/>
<path d="M55.6055 25.0068H30.6543V67.4549H55.6055C58.7552 67.4549 61.3086 64.9015 61.3086 61.7518V30.71C61.3086 27.5603 58.7552 25.0068 55.6055 25.0068Z" fill="#18A8C9"/>
<path d="M0 34.7092H61.3086V44.4117H0V34.7092Z" fill="#ECF6FD"/>
<path d="M16.9788 58.0393H7.27637C6.09525 58.0393 5.1377 58.9969 5.1377 60.178C5.1377 61.3591 6.09525 62.3167 7.27637 62.3167H16.9788C18.1599 62.3167 19.1175 61.3591 19.1175 60.178C19.1175 58.9969 18.1599 58.0393 16.9788 58.0393Z" fill="#EAF6FF"/>
<path d="M30.6543 34.7092H61.3086V44.4117H30.6543V34.7092Z" fill="#D6E8FE"/>
</svg>
