<svg width="27" height="22" viewBox="0 0 27 22" fill="none" xmlns="http://www.w3.org/2000/svg">
<path d="M24.9779 21.1937H2.0221C0.905291 21.1937 0 20.1408 0 18.8418V2.97106C0 1.67219 0.905291 0.619202 2.0221 0.619202H24.9779C26.0947 0.619202 27 1.67212 27 2.97106V18.8418C27 20.1408 26.0947 21.1937 24.9779 21.1937Z" fill="#41479B"/>
<path d="M26.972 19.2306C26.8126 20.3443 25.9807 21.1937 24.9779 21.1937H24.4518L15.8276 14.6219V21.1936H11.1724V14.6218L2.54823 21.1936H2.0221C1.01925 21.1936 0.187365 20.3443 0.028002 19.2305L7.39911 13.6135H0V8.19918H7.39911L0.028002 2.58232C0.187365 1.46856 1.01925 0.619202 2.0221 0.619202H2.54823L11.1724 7.19097V0.619202H15.8276V7.19097L24.4518 0.619202H24.9779C25.9807 0.619202 26.8126 1.46849 26.972 2.58232L19.6009 8.1993H27V13.6136H19.6009L26.972 19.2306Z" fill="#F5F5F5"/>
<path d="M14.8966 21.1937H12.1034V12.5308H0V9.28215H12.1034V0.619259H14.8966V9.28215H27V12.5308H14.8966V21.1937Z" fill="#FF4B55"/>
<path d="M1.30747 0.770445L11.1468 8.19887H9.43674L0.48645 1.44156C0.705456 1.14428 0.986899 0.911329 1.30747 0.770445Z" fill="#FF4B55"/>
<path d="M18.2666 8.19887H16.5565L26.0865 1.00407C26.3531 1.20776 26.5757 1.4829 26.7344 1.80601L18.2666 8.19887Z" fill="#FF4B55"/>
<path d="M0.213257 19.8934L8.53105 13.6136H10.2411L0.8158 20.7296C0.562728 20.5105 0.35564 20.2241 0.213257 19.8934Z" fill="#FF4B55"/>
<path d="M17.5375 13.6136L26.5042 20.3833C26.2827 20.6796 25.9991 20.9112 25.6763 21.0494L15.8274 13.6136H17.5375Z" fill="#FF4B55"/>
</svg>
