<svg width="26" height="19" viewBox="0 0 26 19" fill="none" xmlns="http://www.w3.org/2000/svg">
<path d="M23.65 0H2.34989C1.31363 0 0.473633 0.942349 0.473633 2.10487V16.309C0.473633 17.4715 1.31363 18.4139 2.34989 18.4139H23.65C24.6862 18.4139 25.5262 17.4715 25.5262 16.309V2.10487C25.5262 0.942349 24.6863 0 23.65 0Z" fill="#FF4B55"/>
<path d="M12.8764 7.54628L13.5535 8.5399L14.6107 8.14291C14.6698 8.12068 14.7201 8.19572 14.6847 8.25325L14.0516 9.28266L14.7149 10.288C14.7519 10.3442 14.7039 10.421 14.6442 10.401L13.5758 10.0436L12.9286 11.0618C12.8924 11.1188 12.8124 11.0913 12.8109 11.0214L12.7837 9.77109L11.7204 9.39513C11.661 9.37411 11.6596 9.28029 11.7184 9.25707L12.77 8.84175L12.7601 7.59113C12.7594 7.52119 12.8386 7.49078 12.8764 7.54628Z" fill="#F5F5F5"/>
<path d="M9.13234 13.0859C7.22428 13.0859 5.6765 11.3495 5.6765 9.20703C5.6765 7.06851 7.22433 5.32818 9.13234 5.32818C9.84223 5.32818 10.4969 5.57311 11.0425 5.98766C11.126 6.05112 11.2214 5.92799 11.1515 5.84642C10.3361 4.8954 9.1821 4.31524 7.90256 4.3642C5.70429 4.44835 3.88445 6.4256 3.74397 8.8881C3.58309 11.7087 5.57389 14.0528 8.05253 14.0528C9.27351 14.0528 10.3708 13.4802 11.1544 12.5646C11.2236 12.4837 11.1281 12.3624 11.0453 12.4254C10.4992 12.8408 9.84345 13.0859 9.13234 13.0859Z" fill="#F5F5F5"/>
</svg>
