<svg width="24" height="20" viewBox="0 0 24 20" fill="none" xmlns="http://www.w3.org/2000/svg">
<path d="M0 17.0756C0 18.2338 0.804703 19.1726 1.79742 19.1726H22.2026C23.1952 19.1726 24 18.2338 24 17.0756V15.3105H0V17.0756Z" fill="#C8414B"/>
<path d="M22.2026 0.827637H1.79742C0.804703 0.827637 0 1.76646 0 2.92463V4.68972H24V2.92463C24 1.76646 23.1953 0.827637 22.2026 0.827637Z" fill="#C8414B"/>
<path d="M24 4.68994H0V15.3108H24V4.68994Z" fill="#FFD250"/>
<path d="M10.138 10.0001L10.4888 8.15817C10.5212 7.98853 10.4105 7.82764 10.2615 7.82764H10.0144C9.86549 7.82764 9.75486 7.98858 9.78711 8.15817L10.138 10.0001Z" fill="#C8414B"/>
<path d="M10.5517 9.03418H9.72412V13.1374H10.5517V9.03418Z" fill="#F5F5F5"/>
<path d="M10.7585 8.55176H9.51709V9.03454H10.7585V8.55176Z" fill="#FAB446"/>
<path d="M10.759 10H8.68994V10.4828H10.759V10Z" fill="#C8414B"/>
<path d="M10.7587 11.9313L9.51733 11.4486V10.9658L10.7587 11.4486V11.9313Z" fill="#C8414B"/>
<path d="M3.93119 10.0001L4.28205 8.15817C4.31439 7.98853 4.20372 7.82764 4.05475 7.82764H3.80762C3.6587 7.82764 3.54808 7.98858 3.58033 8.15817L3.93119 10.0001Z" fill="#C8414B"/>
<path d="M5.37939 8.55176C5.15087 8.55176 4.96558 8.76794 4.96558 9.03454V12.1725C4.96558 12.759 5.4348 13.8621 7.03454 13.8621C8.63429 13.8621 9.10351 12.759 9.10351 12.1725V9.03454C9.10351 8.76794 8.91822 8.55176 8.6897 8.55176H5.37939Z" fill="#F5F5F5"/>
<path d="M7.03454 10.9656H4.96558V9.03454C4.96558 8.76794 5.15087 8.55176 5.37939 8.55176H7.03454V10.9656Z" fill="#C8414B"/>
<path d="M7.03442 10.9653H9.10339V12.1722C9.10339 12.8388 8.64027 13.3791 8.06891 13.3791C7.49755 13.3791 7.03442 12.8388 7.03442 12.1722V10.9653Z" fill="#C8414B"/>
<path d="M4.96558 10.9653H7.03454V12.1722C7.03454 12.8388 6.57142 13.3791 6.00006 13.3791C5.4287 13.3791 4.96558 12.8388 4.96558 12.1722V10.9653Z" fill="#FAB446"/>
<path d="M6.62084 13.1323V10.9653H6.20703V13.3548C6.36097 13.3184 6.50005 13.2389 6.62084 13.1323Z" fill="#C8414B"/>
<path d="M5.79321 13.3548V10.9653H5.37939V13.1323C5.50024 13.2389 5.63932 13.3184 5.79321 13.3548Z" fill="#C8414B"/>
<path d="M6.62078 10H5.37939V10.4828H6.62078V10Z" fill="#FFB441"/>
<path d="M6.62078 9.03418H5.37939V9.51696H6.62078V9.03418Z" fill="#FAB446"/>
<path d="M6.41376 9.32129H5.58618V10.1959H6.41376V9.32129Z" fill="#FAB446"/>
<path d="M4.34467 9.03418H3.51709V13.1374H4.34467V9.03418Z" fill="#F5F5F5"/>
<path d="M4.55169 12.8965H3.3103V13.3793H4.55169V12.8965Z" fill="#FAB446"/>
<path d="M4.55169 8.55176H3.3103V9.03454H4.55169V8.55176Z" fill="#FAB446"/>
<path d="M4.75867 13.3789H3.10352V13.8617H4.75867V13.3789Z" fill="#5064AA"/>
<path d="M10.9655 12.897H9.72412V13.3798H10.9655V12.897Z" fill="#FAB446"/>
<path d="M10.9655 13.3789H9.3103V13.8617H10.9655V13.3789Z" fill="#5064AA"/>
<path d="M8.27624 8.06885H5.79346V8.55163H8.27624V8.06885Z" fill="#FAB446"/>
<path d="M7.24145 6.62109H6.82764V8.06938H7.24145V6.62109Z" fill="#FFB441"/>
<path d="M6.62067 7.34472C6.27839 7.34472 6 7.01987 6 6.6206C6 6.22127 6.27844 5.89648 6.62067 5.89648C6.96295 5.89648 7.24134 6.22133 7.24134 6.6206C7.24139 7.01987 6.96295 7.34472 6.62067 7.34472ZM6.62067 6.37921C6.50653 6.37921 6.41377 6.48738 6.41377 6.6206C6.41377 6.75377 6.50648 6.86199 6.62067 6.86199C6.73486 6.86199 6.82758 6.75382 6.82758 6.6206C6.82758 6.48744 6.73486 6.37921 6.62067 6.37921Z" fill="#F5F5F5"/>
<path d="M7.44831 7.34472C7.10603 7.34472 6.82764 7.01987 6.82764 6.6206C6.82764 6.22127 7.10607 5.89648 7.44831 5.89648C7.79059 5.89648 8.06898 6.22133 8.06898 6.6206C8.06898 7.01987 7.79054 7.34472 7.44831 7.34472ZM7.44831 6.37921C7.33417 6.37921 7.2414 6.48738 7.2414 6.6206C7.2414 6.75377 7.33412 6.86199 7.44831 6.86199C7.56245 6.86199 7.65521 6.75382 7.65521 6.6206C7.65517 6.48744 7.56245 6.37921 7.44831 6.37921Z" fill="#F5F5F5"/>
<path d="M8.2757 7.82763C7.93342 7.82763 7.65503 7.50278 7.65503 7.10351C7.65503 6.70418 7.93347 6.37939 8.2757 6.37939C8.61798 6.37939 8.89637 6.70424 8.89637 7.10351C8.89637 7.50278 8.61794 7.82763 8.2757 7.82763ZM8.2757 6.86212C8.16156 6.86212 8.06879 6.97029 8.06879 7.10351C8.06879 7.23668 8.16151 7.3449 8.2757 7.3449C8.38984 7.3449 8.48261 7.23673 8.48261 7.10351C8.48261 6.97029 8.38984 6.86212 8.2757 6.86212Z" fill="#F5F5F5"/>
<path d="M5.79304 7.82763C5.45075 7.82763 5.17236 7.50278 5.17236 7.10351C5.17236 6.70418 5.4508 6.37939 5.79304 6.37939C6.13532 6.37939 6.41371 6.70424 6.41371 7.10351C6.41375 7.50278 6.13532 7.82763 5.79304 7.82763ZM5.79304 6.86212C5.67889 6.86212 5.58613 6.97029 5.58613 7.10351C5.58613 7.23668 5.67885 7.3449 5.79304 7.3449C5.90722 7.3449 5.99994 7.23668 5.99994 7.10346C5.99994 6.97029 5.90722 6.86212 5.79304 6.86212Z" fill="#F5F5F5"/>
<path d="M8.27587 11.931V12.1724C8.27587 12.3055 8.18305 12.4137 8.06896 12.4137C7.95487 12.4137 7.86205 12.3055 7.86205 12.1724V11.931H8.27587ZM8.68963 11.4482H7.44824V12.1724C7.44824 12.5717 7.72668 12.8965 8.06891 12.8965C8.4112 12.8965 8.68959 12.5716 8.68959 12.1724L8.68963 11.4482Z" fill="#FAB446"/>
<path d="M8.06909 10.483C7.84057 10.483 7.65527 10.2668 7.65527 10.0002V9.51745C7.65527 9.25085 7.84057 9.03467 8.06909 9.03467C8.2976 9.03467 8.4829 9.25085 8.4829 9.51745V10.0002C8.4829 10.2668 8.2976 10.483 8.06909 10.483Z" fill="#FFA0D2"/>
<path d="M7.03449 11.6894C7.37728 11.6894 7.65516 11.3652 7.65516 10.9653C7.65516 10.5654 7.37728 10.2412 7.03449 10.2412C6.6917 10.2412 6.41382 10.5654 6.41382 10.9653C6.41382 11.3652 6.6917 11.6894 7.03449 11.6894Z" fill="#5064AA"/>
<path d="M7.24145 5.65527H6.82764V7.10356H7.24145V5.65527Z" fill="#FAB446"/>
<path d="M5.79321 8.06889L5.37939 7.58611L5.62179 7.30332C5.99646 6.86621 6.50468 6.62061 7.0346 6.62061C7.56452 6.62061 8.07269 6.86621 8.44741 7.30332L8.6898 7.58611L8.27599 8.06889H5.79321Z" fill="#C8414B"/>
<path d="M7.03454 7.82751C7.14881 7.82751 7.24145 7.71943 7.24145 7.58612C7.24145 7.4528 7.14881 7.34473 7.03454 7.34473C6.92027 7.34473 6.82764 7.4528 6.82764 7.58612C6.82764 7.71943 6.92027 7.82751 7.03454 7.82751Z" fill="#FFD250"/>
<path d="M6.20666 7.82751C6.32093 7.82751 6.41357 7.71943 6.41357 7.58612C6.41357 7.4528 6.32093 7.34473 6.20666 7.34473C6.09239 7.34473 5.99976 7.4528 5.99976 7.58612C5.99976 7.71943 6.09239 7.82751 6.20666 7.82751Z" fill="#FFD250"/>
<path d="M7.86194 7.82751C7.97621 7.82751 8.06884 7.71943 8.06884 7.58612C8.06884 7.4528 7.97621 7.34473 7.86194 7.34473C7.74766 7.34473 7.65503 7.4528 7.65503 7.58612C7.65503 7.71943 7.74766 7.82751 7.86194 7.82751Z" fill="#FFD250"/>
<path d="M5.37937 10H3.3103V10.4828H5.37937V10Z" fill="#C8414B"/>
<path d="M3.3103 11.9308L4.55165 11.4481V10.9653L3.3103 11.4481V11.9308Z" fill="#C8414B"/>
</svg>
