<svg width="17" height="11" viewBox="0 0 17 11" fill="none" xmlns="http://www.w3.org/2000/svg">
<path d="M13.8176 4.91259C14.3875 4.92551 14.8378 5.34498 14.8229 5.84994C14.8077 6.35337 14.3335 6.75118 13.7637 6.7375C13.1936 6.72459 12.7436 6.30512 12.758 5.8013C12.7726 5.29749 13.2472 4.89987 13.8176 4.91259ZM4.38863 2.65967C4.75935 2.65967 5.02148 2.89125 5.02148 3.17925V4.05086H6.00784C6.33275 4.05086 6.59488 4.28244 6.59488 4.60996C6.59488 4.93653 6.33275 5.16811 6.00784 5.16811H5.02148V6.04086C5.02148 6.32754 4.75935 6.55912 4.38863 6.55912C4.01791 6.55912 3.756 6.32754 3.756 6.04086V5.16811H2.76921C2.44473 5.16811 2.1826 4.93653 2.1826 4.60996C2.1826 4.28244 2.44473 4.05086 2.76921 4.05086H3.756V3.17925C3.756 2.89125 4.01791 2.65967 4.38863 2.65967ZM12.0993 2.48166C12.6696 2.49534 13.1196 2.91404 13.1052 3.41862C13.0898 3.92225 12.6145 4.32025 12.0447 4.30619C11.4749 4.29346 11.0241 3.8738 11.039 3.37037C11.0545 2.86636 11.5282 2.46855 12.0993 2.48166ZM4.19704 0C2.09057 0 0.953682 1.16949 0.775419 2.60324L0.0152748 8.73282C-0.161698 10.1658 1.23602 11 2.29657 11C4.37982 11 6.06869 8.00199 7.19525 8.00199H9.7991C10.9259 8.00199 12.6135 11 14.6978 11C15.7583 11 17.1952 10.1618 16.978 8.73282L16.2176 2.60324C16.0002 1.17462 14.9027 0 12.7971 0C11.2504 0 10.9166 0.742237 9.20324 0.742237H7.79111C6.07772 0.742237 5.7427 0 4.19704 0Z" fill="white"/>
</svg>
