<svg width="26" height="29" viewBox="0 0 26 29" fill="none" xmlns="http://www.w3.org/2000/svg">
<path d="M4.82432 13.665H10.2241V29H5.34478C4.45258 29 3.71834 28.2657 3.71834 27.3735V14.5479L0.0937007 8.2002C-0.101505 7.86561 0.0192977 7.43814 0.353885 7.25217C0.688472 7.06621 1.11595 7.17777 1.30191 7.51245L4.82432 13.665Z" fill="black"/>
<path d="M4.82432 13.665H10.2241V29H5.34478C4.45258 29 3.71834 28.2657 3.71834 27.3735V14.5479L0.0937007 8.2002C-0.101505 7.86561 0.0192977 7.43814 0.353885 7.25217C0.688472 7.06621 1.11595 7.17777 1.30191 7.51245L4.82432 13.665Z" fill="#2BDD67"/>
<path d="M11.6182 13.6653H13.9418V29H11.6182V13.6653Z" fill="black"/>
<path d="M11.6182 13.6653H13.9418V29H11.6182V13.6653Z" fill="#2BDD67"/>
<path d="M25.466 8.2001L21.8414 14.5478V27.3734C21.8414 28.2656 21.1071 28.9999 20.2149 28.9999H15.3356V13.665H20.7354L24.2578 7.51234C24.4437 7.17776 24.8805 7.05695 25.2057 7.25207C25.5403 7.43794 25.6611 7.86551 25.466 8.2001Z" fill="black"/>
<path d="M25.466 8.2001L21.8414 14.5478V27.3734C21.8414 28.2656 21.1071 28.9999 20.2149 28.9999H15.3356V13.665H20.7354L24.2578 7.51234C24.4437 7.17776 24.8805 7.05695 25.2057 7.25207C25.5403 7.43794 25.6611 7.86551 25.466 8.2001Z" fill="#2BDD67"/>
<path d="M3.8122 3.90548C3.42741 3.90548 3.11511 3.59328 3.11511 3.2084V0.697087C3.11511 0.312294 3.42732 0 3.8122 0C4.19708 0 4.50929 0.312203 4.50929 0.697087V3.2084C4.50929 3.59319 4.19708 3.90548 3.8122 3.90548Z" fill="black"/>
<path d="M3.8122 3.90548C3.42741 3.90548 3.11511 3.59328 3.11511 3.2084V0.697087C3.11511 0.312294 3.42732 0 3.8122 0C4.19708 0 4.50929 0.312203 4.50929 0.697087V3.2084C4.50929 3.59319 4.19708 3.90548 3.8122 3.90548Z" fill="#2BDD67"/>
<path d="M5.06786 2.64932H2.55646C2.17167 2.64932 1.85938 2.33711 1.85938 1.95223C1.85938 1.56735 2.17158 1.25514 2.55646 1.25514H5.06786C5.45266 1.25514 5.76495 1.56735 5.76495 1.95223C5.76495 2.33711 5.45275 2.64932 5.06786 2.64932Z" fill="black"/>
<path d="M5.06786 2.64932H2.55646C2.17167 2.64932 1.85938 2.33711 1.85938 1.95223C1.85938 1.56735 2.17158 1.25514 2.55646 1.25514H5.06786C5.45266 1.25514 5.76495 1.56735 5.76495 1.95223C5.76495 2.33711 5.45275 2.64932 5.06786 2.64932Z" fill="#2BDD67"/>
<path d="M21.7474 5.61447C21.3626 5.61447 21.0503 5.30226 21.0503 4.91738V2.40607C21.0503 2.02128 21.3625 1.70898 21.7474 1.70898C22.1323 1.70898 22.4445 2.02119 22.4445 2.40607V4.91747C22.4445 5.30226 22.1323 5.61447 21.7474 5.61447Z" fill="black"/>
<path d="M21.7474 5.61447C21.3626 5.61447 21.0503 5.30226 21.0503 4.91738V2.40607C21.0503 2.02128 21.3625 1.70898 21.7474 1.70898C22.1323 1.70898 22.4445 2.02119 22.4445 2.40607V4.91747C22.4445 5.30226 22.1323 5.61447 21.7474 5.61447Z" fill="#2BDD67"/>
<path d="M23.0032 4.35925H20.4918C20.107 4.35925 19.7947 4.04704 19.7947 3.66216C19.7947 3.27728 20.1069 2.96507 20.4918 2.96507H23.0032C23.388 2.96507 23.7003 3.27728 23.7003 3.66216C23.7003 4.04704 23.388 4.35925 23.0032 4.35925Z" fill="black"/>
<path d="M23.0032 4.35925H20.4918C20.107 4.35925 19.7947 4.04704 19.7947 3.66216C19.7947 3.27728 20.1069 2.96507 20.4918 2.96507H23.0032C23.388 2.96507 23.7003 3.27728 23.7003 3.66216C23.7003 4.04704 23.388 4.35925 23.0032 4.35925Z" fill="#2BDD67"/>
<path d="M14.5289 9.83281L14.0304 12.3069H11.5292L11.0308 9.83281H14.5289Z" fill="black"/>
<path d="M14.5289 9.83281L14.0304 12.3069H11.5292L11.0308 9.83281H14.5289Z" fill="#2BDD67"/>
<path d="M15.9956 8.47697H20.2413L18.6624 5.32549C18.5465 5.09539 18.312 4.95021 18.0544 4.95021H14.8508L15.9956 8.47697Z" fill="black"/>
<path d="M15.9956 8.47697H20.2413L18.6624 5.32549C18.5465 5.09539 18.312 4.95021 18.0544 4.95021H14.8508L15.9956 8.47697Z" fill="#2BDD67"/>
<path d="M12.1371 4.95021L10.9928 8.47697H14.5669L13.4225 4.95021H12.1371Z" fill="black"/>
<path d="M12.1371 4.95021L10.9928 8.47697H14.5669L13.4225 4.95021H12.1371Z" fill="#2BDD67"/>
<path d="M20.1567 9.83281L18.3079 12.3069H15.417L15.9154 9.83281H20.1567Z" fill="black"/>
<path d="M20.1567 9.83281L18.3079 12.3069H15.417L15.9154 9.83281H20.1567Z" fill="#2BDD67"/>
<path d="M10.1428 12.3069H7.25183L5.40308 9.83281H9.64432L10.1428 12.3069Z" fill="black"/>
<path d="M10.1428 12.3069H7.25183L5.40308 9.83281H9.64432L10.1428 12.3069Z" fill="#2BDD67"/>
<path d="M9.56393 8.47697L10.7087 4.95021H7.50511C7.24755 4.95021 7.01301 5.09539 6.8971 5.32549L5.31824 8.47697H9.56393Z" fill="black"/>
<path d="M9.56393 8.47697L10.7087 4.95021H7.50511C7.24755 4.95021 7.01301 5.09539 6.8971 5.32549L5.31824 8.47697H9.56393Z" fill="#2BDD67"/>
</svg>
