<svg width="17" height="14" viewBox="0 0 17 14" fill="none" xmlns="http://www.w3.org/2000/svg">
<path d="M16.787 6.83065C17.0952 6.54235 17.0654 6.10046 16.7206 5.84393L9.12306 0.188924C8.77821 -0.0676072 8.22533 -0.0622334 7.88774 0.201039L0.264398 6.14543C-0.0731929 6.4087 -0.0897621 6.85002 0.227713 7.13074L0.418841 7.30006C0.735928 7.58077 1.24847 7.61424 1.56289 7.37459L2.13262 6.94058V13.2946C2.13262 13.6844 2.50396 14 2.96191 14H5.93351C6.39146 14 6.7628 13.6844 6.7628 13.2946V8.84934H10.5531V13.2946C10.5465 13.6841 10.8742 13.9997 11.3321 13.9997H14.4813C14.9392 13.9997 15.3106 13.6841 15.3106 13.2943V7.03005C15.3106 7.03005 15.468 7.14733 15.6621 7.29247C15.8559 7.43733 16.2629 7.32118 16.5711 7.03259L16.787 6.83065Z" fill="#939BB9"/>
</svg>
