<svg width="24" height="24" viewBox="0 0 24 24" fill="none" xmlns="http://www.w3.org/2000/svg">
<path d="M9.94208 0.500111C7.30677 0.50489 4.78077 1.55388 2.91732 3.41732C1.05388 5.28077 0.00488739 7.80677 0.000108948 10.4421C-0.00791849 12.1477 0.427788 13.8261 1.26444 15.3124C2.1011 16.7987 3.30994 18.0419 4.77225 18.9199C6.322 19.8879 8.11489 20.3957 9.94208 20.3841C12.5774 20.3793 15.1034 19.3303 16.9668 17.4668C18.8303 15.6034 19.8793 13.0774 19.884 10.4421C19.8956 8.61489 19.3879 6.82201 18.4199 5.27226C17.542 3.80988 16.2988 2.60099 14.8125 1.76433C13.3261 0.927663 11.6477 0.491995 9.94208 0.500111ZM17.1726 11.3459C17.0536 11.3471 16.9355 11.3245 16.8253 11.2795C16.7151 11.2345 16.615 11.168 16.5309 11.0838C16.4467 10.9996 16.3802 10.8995 16.3352 10.7894C16.2902 10.6792 16.2676 10.5611 16.2688 10.4421C16.2759 9.28072 15.9564 8.14075 15.3469 7.15219C14.7848 6.22249 13.9916 5.45416 13.0444 4.92199C12.0973 4.38981 11.0285 4.11193 9.94208 4.11537C9.70237 4.11537 9.47248 4.02015 9.30298 3.85065C9.13349 3.68115 9.03826 3.45126 9.03826 3.21156C9.03826 2.97185 9.13349 2.74196 9.30298 2.57246C9.47248 2.40297 9.70237 2.30774 9.94208 2.30774C12.0982 2.31176 14.1649 3.17005 15.6895 4.69467C17.2141 6.21928 18.0724 8.28595 18.0764 10.4421C18.0776 10.5611 18.055 10.6792 18.01 10.7894C17.965 10.8995 17.8985 10.9996 17.8143 11.0838C17.7302 11.168 17.6301 11.2345 17.5199 11.2795C17.4097 11.3245 17.2916 11.3471 17.1726 11.3459Z" fill="#4764D6"/>
<path d="M9.94325 22.1919C9.56241 22.1948 9.18185 22.1706 8.80444 22.1196C8.75059 22.1286 8.69561 22.1286 8.64176 22.1196C8.27134 22.0783 7.9033 22.018 7.5391 21.9388C7.52103 21.9388 7.48487 21.9207 7.4668 21.9207C9.20749 23.2759 11.3525 24.0079 13.5585 23.9995C16.1938 23.9947 18.7198 22.9457 20.5833 21.0823C22.4467 19.2188 23.4957 16.6928 23.5005 14.0575C23.509 11.8515 22.777 9.70645 21.4217 7.96582C21.4217 7.9839 21.4398 8.02005 21.4398 8.03813C21.519 8.40232 21.5793 8.77036 21.6205 9.14078C21.6296 9.19463 21.6296 9.24961 21.6205 9.30347C21.6716 9.68087 21.6958 10.0614 21.6929 10.4423C21.6868 13.5566 20.447 16.5417 18.2448 18.7438C16.0427 20.946 13.0576 22.1859 9.94325 22.1919Z" fill="#4764D6"/>
</svg>
