<svg width="34" height="26" viewBox="0 0 34 26" fill="none" xmlns="http://www.w3.org/2000/svg">
<path d="M4.82422 24.4441C4.82422 24.6041 4.88775 24.7574 5.00083 24.8705C5.11391 24.9836 5.26728 25.0471 5.4272 25.0471H28.3404C28.5003 25.0471 28.6537 24.9836 28.7668 24.8705C28.8799 24.7574 28.9434 24.6041 28.9434 24.4441V22.0322H4.82422V24.4441Z" fill="black"/>
<path d="M4.82422 24.4441C4.82422 24.6041 4.88775 24.7574 5.00083 24.8705C5.11391 24.9836 5.26728 25.0471 5.4272 25.0471H28.3404C28.5003 25.0471 28.6537 24.9836 28.7668 24.8705C28.8799 24.7574 28.9434 24.6041 28.9434 24.4441V22.0322H4.82422V24.4441Z" fill="#4764D6"/>
<path d="M32.5614 6.35528C33.2275 6.35528 33.7674 5.81535 33.7674 5.14932C33.7674 4.48329 33.2275 3.94336 32.5614 3.94336C31.8954 3.94336 31.3555 4.48329 31.3555 5.14932C31.3555 5.81535 31.8954 6.35528 32.5614 6.35528Z" fill="black"/>
<path d="M32.5614 6.35528C33.2275 6.35528 33.7674 5.81535 33.7674 5.14932C33.7674 4.48329 33.2275 3.94336 32.5614 3.94336C31.8954 3.94336 31.3555 4.48329 31.3555 5.14932C31.3555 5.81535 31.8954 6.35528 32.5614 6.35528Z" fill="#4764D6"/>
<path d="M2.22363 7.32729L4.72178 20.8268H29.0436L31.5417 7.32729C31.3926 7.25725 31.2512 7.17198 31.1196 7.07283L25.4655 11.5952C25.0342 11.9398 24.4986 12.1277 23.9466 12.1282C23.8179 12.1283 23.6894 12.1178 23.5625 12.0969C23.2273 12.0421 22.9073 11.9178 22.623 11.732C22.3386 11.5463 22.0963 11.3031 21.9115 11.0181L17.6382 4.41309C17.1502 4.59074 16.6152 4.59074 16.1271 4.41309L11.8538 11.0181C11.669 11.3032 11.4266 11.5465 11.1421 11.7324C10.8577 11.9183 10.5376 12.0426 10.2023 12.0975C10.0753 12.1184 9.94684 12.1289 9.81816 12.1288C9.26621 12.1287 8.73074 11.9407 8.29986 11.5958L2.64512 7.07343C2.51374 7.17233 2.37249 7.2574 2.22363 7.32729ZM23.7006 16.0633L24.842 14.5721C24.9397 14.4603 25.0603 14.3708 25.1954 14.3094C25.3306 14.248 25.4774 14.2163 25.6259 14.2163C25.7743 14.2163 25.9211 14.248 26.0563 14.3094C26.1915 14.3708 26.312 14.4603 26.4097 14.5721L27.5506 16.0633C27.6711 16.2185 27.7365 16.4094 27.7365 16.6059C27.7365 16.8024 27.6711 16.9934 27.5506 17.1486L26.4097 18.6398C26.3161 18.7579 26.1969 18.8534 26.0612 18.919C25.9255 18.9846 25.7766 19.0187 25.6259 19.0187C25.4751 19.0187 25.3263 18.9846 25.1906 18.919C25.0548 18.8534 24.9357 18.7579 24.842 18.6398L23.7012 17.1486C23.5806 16.9934 23.5151 16.8026 23.515 16.606C23.5149 16.4095 23.5802 16.2186 23.7006 16.0633ZM14.083 14.7482L15.9101 12.2639C16.0242 12.1142 16.1713 11.9928 16.34 11.9092C16.5087 11.8257 16.6944 11.7822 16.8827 11.7822C17.0709 11.7822 17.2566 11.8257 17.4253 11.9092C17.594 11.9928 17.7412 12.1142 17.8553 12.2639L19.6823 14.7482C19.8218 14.9368 19.8972 15.1653 19.8972 15.4C19.8972 15.6346 19.8218 15.8631 19.6823 16.0518L17.8553 18.5361C17.7412 18.6859 17.5941 18.8074 17.4254 18.891C17.2567 18.9746 17.071 19.0181 16.8827 19.0181C16.6944 19.0181 16.5086 18.9746 16.3399 18.891C16.1712 18.8074 16.0241 18.6859 15.9101 18.5361L14.083 16.0524C13.9434 15.8637 13.868 15.6351 13.868 15.4003C13.868 15.1655 13.9434 14.9369 14.083 14.7482ZM6.21415 16.0633L7.35559 14.5721C7.45333 14.4603 7.57384 14.3708 7.70904 14.3094C7.84424 14.248 7.99099 14.2163 8.13947 14.2163C8.28794 14.2163 8.4347 14.248 8.56989 14.3094C8.70509 14.3708 8.8256 14.4603 8.92334 14.5721L10.0642 16.0633C10.1847 16.2185 10.25 16.4094 10.25 16.6059C10.25 16.8024 10.1847 16.9934 10.0642 17.1486L8.92334 18.6398C8.82968 18.7579 8.71052 18.8534 8.57478 18.919C8.43904 18.9846 8.29023 19.0187 8.13947 19.0187C7.9887 19.0187 7.83989 18.9846 7.70415 18.919C7.56841 18.8534 7.44926 18.7579 7.35559 18.6398L6.21475 17.1486C6.09419 16.9934 6.0287 16.8026 6.02859 16.606C6.02848 16.4095 6.09376 16.2186 6.21415 16.0633Z" fill="black"/>
<path d="M2.22363 7.32729L4.72178 20.8268H29.0436L31.5417 7.32729C31.3926 7.25725 31.2512 7.17198 31.1196 7.07283L25.4655 11.5952C25.0342 11.9398 24.4986 12.1277 23.9466 12.1282C23.8179 12.1283 23.6894 12.1178 23.5625 12.0969C23.2273 12.0421 22.9073 11.9178 22.623 11.732C22.3386 11.5463 22.0963 11.3031 21.9115 11.0181L17.6382 4.41309C17.1502 4.59074 16.6152 4.59074 16.1271 4.41309L11.8538 11.0181C11.669 11.3032 11.4266 11.5465 11.1421 11.7324C10.8577 11.9183 10.5376 12.0426 10.2023 12.0975C10.0753 12.1184 9.94684 12.1289 9.81816 12.1288C9.26621 12.1287 8.73074 11.9407 8.29986 11.5958L2.64512 7.07343C2.51374 7.17233 2.37249 7.2574 2.22363 7.32729ZM23.7006 16.0633L24.842 14.5721C24.9397 14.4603 25.0603 14.3708 25.1954 14.3094C25.3306 14.248 25.4774 14.2163 25.6259 14.2163C25.7743 14.2163 25.9211 14.248 26.0563 14.3094C26.1915 14.3708 26.312 14.4603 26.4097 14.5721L27.5506 16.0633C27.6711 16.2185 27.7365 16.4094 27.7365 16.6059C27.7365 16.8024 27.6711 16.9934 27.5506 17.1486L26.4097 18.6398C26.3161 18.7579 26.1969 18.8534 26.0612 18.919C25.9255 18.9846 25.7766 19.0187 25.6259 19.0187C25.4751 19.0187 25.3263 18.9846 25.1906 18.919C25.0548 18.8534 24.9357 18.7579 24.842 18.6398L23.7012 17.1486C23.5806 16.9934 23.5151 16.8026 23.515 16.606C23.5149 16.4095 23.5802 16.2186 23.7006 16.0633ZM14.083 14.7482L15.9101 12.2639C16.0242 12.1142 16.1713 11.9928 16.34 11.9092C16.5087 11.8257 16.6944 11.7822 16.8827 11.7822C17.0709 11.7822 17.2566 11.8257 17.4253 11.9092C17.594 11.9928 17.7412 12.1142 17.8553 12.2639L19.6823 14.7482C19.8218 14.9368 19.8972 15.1653 19.8972 15.4C19.8972 15.6346 19.8218 15.8631 19.6823 16.0518L17.8553 18.5361C17.7412 18.6859 17.5941 18.8074 17.4254 18.891C17.2567 18.9746 17.071 19.0181 16.8827 19.0181C16.6944 19.0181 16.5086 18.9746 16.3399 18.891C16.1712 18.8074 16.0241 18.6859 15.9101 18.5361L14.083 16.0524C13.9434 15.8637 13.868 15.6351 13.868 15.4003C13.868 15.1655 13.9434 14.9369 14.083 14.7482ZM6.21415 16.0633L7.35559 14.5721C7.45333 14.4603 7.57384 14.3708 7.70904 14.3094C7.84424 14.248 7.99099 14.2163 8.13947 14.2163C8.28794 14.2163 8.4347 14.248 8.56989 14.3094C8.70509 14.3708 8.8256 14.4603 8.92334 14.5721L10.0642 16.0633C10.1847 16.2185 10.25 16.4094 10.25 16.6059C10.25 16.8024 10.1847 16.9934 10.0642 17.1486L8.92334 18.6398C8.82968 18.7579 8.71052 18.8534 8.57478 18.919C8.43904 18.9846 8.29023 19.0187 8.13947 19.0187C7.9887 19.0187 7.83989 18.9846 7.70415 18.919C7.56841 18.8534 7.44926 18.7579 7.35559 18.6398L6.21475 17.1486C6.09419 16.9934 6.0287 16.8026 6.02859 16.606C6.02848 16.4095 6.09376 16.2186 6.21415 16.0633Z" fill="#4764D6"/>
<path d="M10.0095 10.9064C10.1786 10.8798 10.3401 10.8177 10.4834 10.7241C10.6268 10.6306 10.7486 10.5078 10.841 10.3637L12.5059 7.79078L9.20997 4.00889C9.18815 3.98488 9.16073 3.96662 9.13016 3.95574C9.09958 3.94487 9.0668 3.9417 9.03471 3.94653C9.00262 3.95136 8.97222 3.96404 8.9462 3.98344C8.92018 4.00284 8.89936 4.02836 8.88557 4.05773L6.71484 8.78389L9.0538 10.6531C9.18617 10.7605 9.33978 10.8385 9.50452 10.8822C9.66925 10.9258 9.84137 10.9341 10.0095 10.9064Z" fill="black"/>
<path d="M10.0095 10.9064C10.1786 10.8798 10.3401 10.8177 10.4834 10.7241C10.6268 10.6306 10.7486 10.5078 10.841 10.3637L12.5059 7.79078L9.20997 4.00889C9.18815 3.98488 9.16073 3.96662 9.13016 3.95574C9.09958 3.94487 9.0668 3.9417 9.03471 3.94653C9.00262 3.95136 8.97222 3.96404 8.9462 3.98344C8.92018 4.00284 8.89936 4.02836 8.88557 4.05773L6.71484 8.78389L9.0538 10.6531C9.18617 10.7605 9.33978 10.8385 9.50452 10.8822C9.66925 10.9258 9.84137 10.9341 10.0095 10.9064Z" fill="#4764D6"/>
<path d="M23.7562 10.9064C23.9247 10.9344 24.0971 10.9263 24.2622 10.8826C24.4273 10.839 24.5812 10.7608 24.7138 10.6532L27.0527 8.78393L24.882 4.05778C24.8682 4.02833 24.8473 4.00275 24.8212 3.98333C24.7951 3.96391 24.7646 3.95125 24.7324 3.94647C24.7003 3.9417 24.6674 3.94496 24.6368 3.95596C24.6062 3.96696 24.5788 3.98537 24.557 4.00954L21.2617 7.79082L22.9271 10.3643C23.0193 10.5081 23.1408 10.6307 23.2837 10.7241C23.4266 10.8175 23.5876 10.8797 23.7562 10.9064Z" fill="black"/>
<path d="M23.7562 10.9064C23.9247 10.9344 24.0971 10.9263 24.2622 10.8826C24.4273 10.839 24.5812 10.7608 24.7138 10.6532L27.0527 8.78393L24.882 4.05778C24.8682 4.02833 24.8473 4.00275 24.8212 3.98333C24.7951 3.96391 24.7646 3.95125 24.7324 3.94647C24.7003 3.9417 24.6674 3.94496 24.6368 3.95596C24.6062 3.96696 24.5788 3.98537 24.557 4.00954L21.2617 7.79082L22.9271 10.3643C23.0193 10.5081 23.1408 10.6307 23.2837 10.7241C23.4266 10.8175 23.5876 10.8797 23.7562 10.9064Z" fill="#4764D6"/>
<path d="M16.8827 3.34063C17.5487 3.34063 18.0887 2.8007 18.0887 2.13467C18.0887 1.46864 17.5487 0.928711 16.8827 0.928711C16.2167 0.928711 15.6768 1.46864 15.6768 2.13467C15.6768 2.8007 16.2167 3.34063 16.8827 3.34063Z" fill="black"/>
<path d="M16.8827 3.34063C17.5487 3.34063 18.0887 2.8007 18.0887 2.13467C18.0887 1.46864 17.5487 0.928711 16.8827 0.928711C16.2167 0.928711 15.6768 1.46864 15.6768 2.13467C15.6768 2.8007 16.2167 3.34063 16.8827 3.34063Z" fill="#4764D6"/>
<path d="M1.20596 6.35528C1.87199 6.35528 2.41192 5.81535 2.41192 5.14932C2.41192 4.48329 1.87199 3.94336 1.20596 3.94336C0.539926 3.94336 0 4.48329 0 5.14932C0 5.81535 0.539926 6.35528 1.20596 6.35528Z" fill="black"/>
<path d="M1.20596 6.35528C1.87199 6.35528 2.41192 5.81535 2.41192 5.14932C2.41192 4.48329 1.87199 3.94336 1.20596 3.94336C0.539926 3.94336 0 4.48329 0 5.14932C0 5.81535 0.539926 6.35528 1.20596 6.35528Z" fill="#4764D6"/>
<path d="M26.4494 16.6059L25.6275 15.5332L24.8057 16.6059L25.6275 17.6786L26.4494 16.6059Z" fill="black"/>
<path d="M26.4494 16.6059L25.6275 15.5332L24.8057 16.6059L25.6275 17.6786L26.4494 16.6059Z" fill="#4764D6"/>
<path d="M18.6652 15.4001L16.8846 12.9785L15.1016 15.4001L16.8822 17.8216L18.6652 15.4001Z" fill="black"/>
<path d="M18.6652 15.4001L16.8846 12.9785L15.1016 15.4001L16.8822 17.8216L18.6652 15.4001Z" fill="#4764D6"/>
<path d="M8.96208 16.6059L8.14022 15.5332L7.31836 16.6059L8.14022 17.6786L8.96208 16.6059Z" fill="black"/>
<path d="M8.96208 16.6059L8.14022 15.5332L7.31836 16.6059L8.14022 17.6786L8.96208 16.6059Z" fill="#4764D6"/>
</svg>
