<svg width="69" height="61" viewBox="0 0 69 61" fill="none" xmlns="http://www.w3.org/2000/svg">
<path d="M56.8691 37.6723C57.4274 37.7658 57.9859 37.812 58.5408 37.812C60.6021 37.812 62.6086 37.1739 64.3205 35.953C66.4935 34.4035 67.9331 32.1005 68.3739 29.4682L69 25.73L65.2616 25.1039C62.8464 24.6996 60.4864 25.2037 58.5284 26.3637C58.5278 26.1051 58.5267 25.8472 58.5247 25.5896C63.4784 24.9501 67.0251 20.431 66.4482 15.455L66.033 11.8736L62.4516 12.2888C60.3 12.5382 58.409 13.5201 56.9951 14.9544C56.9409 14.8141 56.8847 14.6743 56.8265 14.5351C60.572 11.9553 61.663 6.84238 59.2304 2.94692L57.3902 0L54.4437 1.84032C52.5028 3.05223 51.1501 4.94731 50.6348 7.17654C50.1194 9.40578 50.5029 11.7024 51.7148 13.6431L52.6361 15.1186C54.1875 18.0693 54.4832 21.4638 54.4832 26.6781C54.4832 32.5768 52.9579 37.1511 49.8202 40.6625C47.0229 43.793 43.3455 45.7303 39.7892 47.6039C37.9733 48.5605 36.1368 49.5284 34.4999 50.6546C32.8631 49.5285 31.0266 48.5607 29.2106 47.6039C25.6543 45.7303 21.9771 43.793 19.1797 40.6625C16.042 37.1511 14.5167 32.5768 14.5167 26.6781C14.5167 21.4645 14.8123 18.07 16.363 15.1198L17.285 13.6432C18.4969 11.7023 18.8806 9.40578 18.3651 7.17654C17.8497 4.94731 16.497 3.05223 14.5563 1.84046L11.6095 0.000134778L9.76947 2.94705C7.33755 6.8417 8.42716 11.953 12.1701 14.5335C12.1128 14.6697 12.0567 14.8069 12.0028 14.9454C10.5443 13.4658 8.64157 12.5318 6.54827 12.289L2.96687 11.8738L2.55167 15.4552C1.97477 20.4315 5.52177 24.9508 10.476 25.59C10.4738 25.8497 10.4726 26.1076 10.472 26.3646C8.51387 25.2042 6.15342 24.7 3.73809 25.1041L0 25.7301L0.625982 29.4683C1.06681 32.1007 2.50622 34.4036 4.67922 35.9531C6.39157 37.1743 8.39749 37.8122 10.4591 37.8122C11.0136 37.8122 11.5727 37.7659 12.1306 37.6725L12.4963 37.6112C12.5555 37.7491 12.6154 37.8865 12.6773 38.0225C10.518 37.9382 8.39911 38.5502 6.59128 39.8024L3.4669 41.9665L5.631 45.0909C7.1578 47.2952 9.45162 48.7729 12.0897 49.2519C12.6952 49.3617 13.3018 49.4162 13.9043 49.4162C15.9272 49.4162 17.9006 48.8035 19.5989 47.6271L20.3765 47.0885C20.5054 47.1807 20.6346 47.272 20.7642 47.362C18.3754 48.2941 16.4436 50.054 15.2894 52.3643L13.5616 55.8223L17.0196 57.55C18.4979 58.2887 20.0703 58.6384 21.6204 58.6384C25.3555 58.6384 28.9582 56.6058 30.7933 53.0895C30.978 53.199 31.1582 53.3081 31.3339 53.4169C29.8121 55.1917 28.8416 57.373 28.8416 60.2406H32.8871C32.8871 58.4755 33.444 57.1206 34.5002 55.9246C35.5562 57.1206 36.1133 58.4755 36.1133 60.2406H40.1589C40.1589 57.3728 39.1883 55.1917 37.6665 53.4169C37.8422 53.3082 38.0224 53.1992 38.2071 53.0897C40.0423 56.6063 43.6445 58.6385 47.38 58.6385C48.9296 58.6385 50.5027 58.2886 51.9806 57.5501L55.4385 55.8224L53.7108 52.3644C52.5221 49.985 50.5325 48.2649 48.2307 47.3657C48.362 47.2746 48.4931 47.1821 48.6238 47.0886L49.4013 47.6272C51.0998 48.8037 53.0728 49.4163 55.096 49.4163C55.6984 49.4163 56.3053 49.3619 56.9105 49.252C59.5486 48.7729 61.8425 47.2952 63.3694 45.0909L65.5332 41.9667L62.4091 39.8026C60.6013 38.5505 58.4825 37.9382 56.3231 38.0225C56.3849 37.8865 56.4448 37.7492 56.504 37.6114L56.8691 37.6723Z" fill="black"/>
<path d="M56.8691 37.6723C57.4274 37.7658 57.9859 37.812 58.5408 37.812C60.6021 37.812 62.6086 37.1739 64.3205 35.953C66.4935 34.4035 67.9331 32.1005 68.3739 29.4682L69 25.73L65.2616 25.1039C62.8464 24.6996 60.4864 25.2037 58.5284 26.3637C58.5278 26.1051 58.5267 25.8472 58.5247 25.5896C63.4784 24.9501 67.0251 20.431 66.4482 15.455L66.033 11.8736L62.4516 12.2888C60.3 12.5382 58.409 13.5201 56.9951 14.9544C56.9409 14.8141 56.8847 14.6743 56.8265 14.5351C60.572 11.9553 61.663 6.84238 59.2304 2.94692L57.3902 0L54.4437 1.84032C52.5028 3.05223 51.1501 4.94731 50.6348 7.17654C50.1194 9.40578 50.5029 11.7024 51.7148 13.6431L52.6361 15.1186C54.1875 18.0693 54.4832 21.4638 54.4832 26.6781C54.4832 32.5768 52.9579 37.1511 49.8202 40.6625C47.0229 43.793 43.3455 45.7303 39.7892 47.6039C37.9733 48.5605 36.1368 49.5284 34.4999 50.6546C32.8631 49.5285 31.0266 48.5607 29.2106 47.6039C25.6543 45.7303 21.9771 43.793 19.1797 40.6625C16.042 37.1511 14.5167 32.5768 14.5167 26.6781C14.5167 21.4645 14.8123 18.07 16.363 15.1198L17.285 13.6432C18.4969 11.7023 18.8806 9.40578 18.3651 7.17654C17.8497 4.94731 16.497 3.05223 14.5563 1.84046L11.6095 0.000134778L9.76947 2.94705C7.33755 6.8417 8.42716 11.953 12.1701 14.5335C12.1128 14.6697 12.0567 14.8069 12.0028 14.9454C10.5443 13.4658 8.64157 12.5318 6.54827 12.289L2.96687 11.8738L2.55167 15.4552C1.97477 20.4315 5.52177 24.9508 10.476 25.59C10.4738 25.8497 10.4726 26.1076 10.472 26.3646C8.51387 25.2042 6.15342 24.7 3.73809 25.1041L0 25.7301L0.625982 29.4683C1.06681 32.1007 2.50622 34.4036 4.67922 35.9531C6.39157 37.1743 8.39749 37.8122 10.4591 37.8122C11.0136 37.8122 11.5727 37.7659 12.1306 37.6725L12.4963 37.6112C12.5555 37.7491 12.6154 37.8865 12.6773 38.0225C10.518 37.9382 8.39911 38.5502 6.59128 39.8024L3.4669 41.9665L5.631 45.0909C7.1578 47.2952 9.45162 48.7729 12.0897 49.2519C12.6952 49.3617 13.3018 49.4162 13.9043 49.4162C15.9272 49.4162 17.9006 48.8035 19.5989 47.6271L20.3765 47.0885C20.5054 47.1807 20.6346 47.272 20.7642 47.362C18.3754 48.2941 16.4436 50.054 15.2894 52.3643L13.5616 55.8223L17.0196 57.55C18.4979 58.2887 20.0703 58.6384 21.6204 58.6384C25.3555 58.6384 28.9582 56.6058 30.7933 53.0895C30.978 53.199 31.1582 53.3081 31.3339 53.4169C29.8121 55.1917 28.8416 57.373 28.8416 60.2406H32.8871C32.8871 58.4755 33.444 57.1206 34.5002 55.9246C35.5562 57.1206 36.1133 58.4755 36.1133 60.2406H40.1589C40.1589 57.3728 39.1883 55.1917 37.6665 53.4169C37.8422 53.3082 38.0224 53.1992 38.2071 53.0897C40.0423 56.6063 43.6445 58.6385 47.38 58.6385C48.9296 58.6385 50.5027 58.2886 51.9806 57.5501L55.4385 55.8224L53.7108 52.3644C52.5221 49.985 50.5325 48.2649 48.2307 47.3657C48.362 47.2746 48.4931 47.1821 48.6238 47.0886L49.4013 47.6272C51.0998 48.8037 53.0728 49.4163 55.096 49.4163C55.6984 49.4163 56.3053 49.3619 56.9105 49.252C59.5486 48.7729 61.8425 47.2952 63.3694 45.0909L65.5332 41.9667L62.4091 39.8026C60.6013 38.5505 58.4825 37.9382 56.3231 38.0225C56.3849 37.8865 56.4448 37.7492 56.504 37.6114L56.8691 37.6723Z" fill="url(#paint0_linear_146_3333)"/>
<defs>
<linearGradient id="paint0_linear_146_3333" x1="95.8983" y1="2.11666e-06" x2="-21.9148" y2="2.98082" gradientUnits="userSpaceOnUse">
<stop stop-color="#FFC24B"/>
<stop offset="1" stop-color="#FF9900"/>
</linearGradient>
</defs>
</svg>
