<svg width="10" height="10" viewBox="0 0 10 10" fill="none" xmlns="http://www.w3.org/2000/svg">
<path d="M3.9571 9.08953C3.83361 9.08953 3.73258 9.05024 3.654 8.97166C3.57542 8.89308 3.53613 8.79204 3.53613 8.66856V5.48604H0.420968C0.297484 5.48604 0.196452 5.44675 0.117871 5.36817C0.0392903 5.28959 0 5.19417 0 5.08191V4.02108C0 3.89759 0.0392903 3.79656 0.117871 3.71798C0.196452 3.6394 0.297484 3.60011 0.420968 3.60011H3.53613V0.518624C3.53613 0.39514 3.57542 0.294108 3.654 0.215528C3.73258 0.136947 3.83361 0.0976562 3.9571 0.0976562H5.11897C5.24245 0.0976562 5.34348 0.136947 5.42206 0.215528C5.50065 0.294108 5.53994 0.39514 5.53994 0.518624V3.60011H8.6551C8.76735 3.60011 8.86277 3.6394 8.94136 3.71798C9.01994 3.79656 9.05923 3.89759 9.05923 4.02108V5.08191C9.05923 5.19417 9.01994 5.28959 8.94136 5.36817C8.86277 5.44675 8.76735 5.48604 8.6551 5.48604H5.53994V8.66856C5.53994 8.79204 5.50065 8.89308 5.42206 8.97166C5.34348 9.05024 5.24245 9.08953 5.11897 9.08953H3.9571Z" fill="#939BB9"/>
</svg>
