<svg width="19" height="11" viewBox="0 0 19 11" fill="none" xmlns="http://www.w3.org/2000/svg">
<path d="M18.8581 5.08378C18.6885 4.8946 14.6093 0.445312 9.49998 0.445312C4.39071 0.445312 0.311514 4.8946 0.141887 5.08378C-0.0472957 5.29523 -0.0472957 5.61489 0.141887 5.82634C0.311514 6.01552 4.39078 10.4648 9.49998 10.4648C14.6092 10.4648 18.6885 6.01552 18.8581 5.82634C19.0472 5.61489 19.0472 5.29523 18.8581 5.08378ZM9.49998 9.35153C7.35169 9.35153 5.60351 7.60335 5.60351 5.45506C5.60351 3.30677 7.35169 1.55859 9.49998 1.55859C11.6483 1.55859 13.3965 3.30677 13.3965 5.45506C13.3965 7.60335 11.6483 9.35153 9.49998 9.35153Z" fill="#939BB9"/>
<path d="M10.0566 4.34179C10.0566 3.78181 10.3346 3.28919 10.7575 2.98619C10.378 2.79192 9.95476 2.67188 9.49999 2.67188C7.96541 2.67188 6.7168 3.92049 6.7168 5.45507C6.7168 6.98965 7.96541 8.23826 9.49999 8.23826C10.8739 8.23826 12.0111 7.23505 12.2358 5.9242C11.1148 6.28509 10.0566 5.43733 10.0566 4.34179Z" fill="#939BB9"/>
</svg>
