<svg width="18" height="18" viewBox="0 0 18 18" fill="none" xmlns="http://www.w3.org/2000/svg">
<path d="M18 4.96501V13.048C18 13.3974 17.8074 13.7168 17.5025 13.8732L9.45 18V9.34691L11.475 8.30909V12.6356C11.475 12.8386 11.6033 13.0162 11.79 13.0761C11.835 13.09 11.88 13.0969 11.925 13.0969C12.069 13.0969 12.2085 13.0254 12.294 12.8985L14.0602 10.2856L15.264 11.1665C15.4012 11.2657 15.5812 11.2796 15.732 11.2011C15.8805 11.1227 15.975 10.9636 15.975 10.7906V6.00283L18 4.96501ZM8.5977 0.0971802L7.19325 0.816042L15.6375 5.14259L17.4443 4.21778L9.4023 0.0974107C9.14895 -0.0324319 8.85105 -0.0324317 8.5977 0.0971802ZM12.375 7.84784V11.1596L13.581 9.37458C13.6485 9.2731 13.7543 9.20392 13.8735 9.18316C13.9905 9.1624 14.1143 9.19008 14.211 9.26157L15.075 9.89349V6.46408L12.375 7.84784ZM6.1875 1.33264L3.59325 2.66105L12.0375 6.9876L14.6317 5.65919L6.1875 1.33264ZM2.5875 3.17765L0.55575 4.21778L9 8.54433L11.0317 7.5042L2.5875 3.17765ZM0 4.96501V13.048C0 13.3974 0.1926 13.7168 0.497475 13.8732L8.55 18V9.34691L0 4.96501Z" fill="#2CDD68"/>
</svg>
