<svg width="241" height="246" viewBox="0 0 241 246" fill="none" xmlns="http://www.w3.org/2000/svg">
<path d="M0 15.0994C0 6.0392 7.97071 -0.952907 16.9537 0.227169L227.954 27.9457C235.419 28.9264 241 35.2889 241 42.8179V231C241 239.284 234.284 246 226 246H15C6.71573 246 0 239.284 0 231V15.0994Z" fill="#262C46"/>
<path d="M0 15.0994C0 6.0392 7.97071 -0.952907 16.9537 0.227169L227.954 27.9457C235.419 28.9264 241 35.2889 241 42.8179V231C241 239.284 234.284 246 226 246H15C6.71573 246 0 239.284 0 231V15.0994Z" fill="url(#paint0_radial_1877_150)" fill-opacity="0.2"/>
<path d="M0.5 15.0994C0.5 6.34121 8.20502 -0.417831 16.8886 0.72291L227.889 28.4415C235.105 29.3894 240.5 35.5398 240.5 42.8179V231C240.5 239.008 234.008 245.5 226 245.5H15C6.99187 245.5 0.5 239.008 0.5 231V15.0994Z" stroke="url(#paint1_linear_1877_150)" stroke-opacity="0.65"/>
<defs>

<linearGradient id="paint1_linear_1877_150" x1="120.5" y1="-2" x2="120.5" y2="246" gradientUnits="userSpaceOnUse">
<stop stop-color="#13AAFF"/>
<stop offset="1" stop-color="#3D486F" stop-opacity="0"/>
</linearGradient>
</defs>
</svg>
