<svg width="14" height="14" viewBox="0 0 14 14" fill="none" xmlns="http://www.w3.org/2000/svg">
<path d="M13.6685 11.3609L10.4498 8.33095C10.9967 7.51142 11.3141 6.54278 11.3141 5.50325C11.3141 2.56228 8.7812 0.178467 5.65691 0.178467C2.53262 0.178467 0 2.56228 0 5.50325C0 8.44434 2.5325 10.8279 5.65691 10.8279C6.85875 10.8279 7.97196 10.4742 8.88798 9.87327L12.0684 12.8672C12.2894 13.075 12.5791 13.1785 12.8684 13.1785C13.1581 13.1785 13.4475 13.075 13.6688 12.8672C14.1105 12.451 14.1105 11.7769 13.6685 11.3609ZM5.65691 9.10278C3.54517 9.10278 1.83311 7.49134 1.83311 5.50348C1.83311 3.51561 3.54517 1.90406 5.65691 1.90406C7.76876 1.90406 9.48071 3.51561 9.48071 5.50348C9.48071 7.49134 7.76876 9.10278 5.65691 9.10278Z" fill="#939BB9"/>
</svg>
