<svg width="78" height="35" viewBox="0 0 78 35" fill="none" xmlns="http://www.w3.org/2000/svg">
<mask id="path-1-inside-1_1174_4873" fill="white">
<path fill-rule="evenodd" clip-rule="evenodd" d="M3 35C1.34315 35 0 33.6569 0 32V10C0 8.34315 1.34315 7 3 7H66.1L77.2465 0.443241C77.5798 0.247173 78 0.487499 78 0.874207V9.5C78 9.54993 77.9927 9.59814 77.9791 9.64364C77.9929 9.7605 78 9.87942 78 10V32C78 33.6569 76.6569 35 75 35H3Z"/>
</mask>
<path fill-rule="evenodd" clip-rule="evenodd" d="M3 35C1.34315 35 0 33.6569 0 32V10C0 8.34315 1.34315 7 3 7H66.1L77.2465 0.443241C77.5798 0.247173 78 0.487499 78 0.874207V9.5C78 9.54993 77.9927 9.59814 77.9791 9.64364C77.9929 9.7605 78 9.87942 78 10V32C78 33.6569 76.6569 35 75 35H3Z" fill="#20253E"/>
<path fill-rule="evenodd" clip-rule="evenodd" d="M3 35C1.34315 35 0 33.6569 0 32V10C0 8.34315 1.34315 7 3 7H66.1L77.2465 0.443241C77.5798 0.247173 78 0.487499 78 0.874207V9.5C78 9.54993 77.9927 9.59814 77.9791 9.64364C77.9929 9.7605 78 9.87942 78 10V32C78 33.6569 76.6569 35 75 35H3Z" fill="url(#paint0_radial_1174_4873)" fill-opacity="0.2"/>
<path fill-rule="evenodd" clip-rule="evenodd" d="M3 35C1.34315 35 0 33.6569 0 32V10C0 8.34315 1.34315 7 3 7H66.1L77.2465 0.443241C77.5798 0.247173 78 0.487499 78 0.874207V9.5C78 9.54993 77.9927 9.59814 77.9791 9.64364C77.9929 9.7605 78 9.87942 78 10V32C78 33.6569 76.6569 35 75 35H3Z" fill="black" fill-opacity="0.2"/>
<path fill-rule="evenodd" clip-rule="evenodd" d="M3 35C1.34315 35 0 33.6569 0 32V10C0 8.34315 1.34315 7 3 7H66.1L77.2465 0.443241C77.5798 0.247173 78 0.487499 78 0.874207V9.5C78 9.54993 77.9927 9.59814 77.9791 9.64364C77.9929 9.7605 78 9.87942 78 10V32C78 33.6569 76.6569 35 75 35H3Z" fill="black" fill-opacity="0.2"/>
<path d="M66.1 7L66.2268 7.21548L66.1681 7.25H66.1V7ZM77.2465 0.443241L77.3732 0.658726L77.2465 0.443241ZM77.9791 9.64364L77.7308 9.67303L77.7247 9.62156L77.7396 9.57192L77.9791 9.64364ZM-0.25 32V31.0833H0.25V32H-0.25ZM-0.25 29.25V27.4167H0.25V29.25H-0.25ZM-0.25 25.5833V23.75H0.25V25.5833H-0.25ZM-0.25 21.9167V20.0833H0.25V21.9167H-0.25ZM-0.25 18.25V16.4167H0.25V18.25H-0.25ZM-0.25 14.5833V12.75H0.25V14.5833H-0.25ZM-0.25 10.9167V10H0.25V10.9167H-0.25ZM-0.25 10C-0.25 9.55979 -0.16234 9.13942 -0.00328946 8.75587L0.458573 8.9474C0.324258 9.2713 0.25 9.62666 0.25 10H-0.25ZM1.75588 6.99671C2.13942 6.83766 2.55979 6.75 3 6.75V7.25C2.62666 7.25 2.2713 7.32426 1.9474 7.45857L1.75588 6.99671ZM3 6.75H3.98594V7.25H3V6.75ZM5.95781 6.75H7.92969V7.25H5.95781V6.75ZM9.90156 6.75H11.8734V7.25H9.90156V6.75ZM13.8453 6.75H15.8172V7.25H13.8453V6.75ZM17.7891 6.75H19.7609V7.25H17.7891V6.75ZM21.7328 6.75H23.7047V7.25H21.7328V6.75ZM25.6766 6.75H27.6484V7.25H25.6766V6.75ZM29.6203 6.75H31.5922V7.25H29.6203V6.75ZM33.5641 6.75H35.5359V7.25H33.5641V6.75ZM37.5078 6.75H39.4797V7.25H37.5078V6.75ZM41.4516 6.75H43.4234V7.25H41.4516V6.75ZM45.3953 6.75H47.3672V7.25H45.3953V6.75ZM49.3391 6.75H51.3109V7.25H49.3391V6.75ZM53.2828 6.75H55.2547V7.25H53.2828V6.75ZM57.2266 6.75H59.1984V7.25H57.2266V6.75ZM61.1703 6.75H63.1422V7.25H61.1703V6.75ZM65.1141 6.75H66.1V7.25H65.1141V6.75ZM65.9732 6.78452L66.9021 6.23812L67.1556 6.66909L66.2268 7.21548L65.9732 6.78452ZM68.7599 5.14533L70.6176 4.05253L70.8711 4.4835L69.0134 5.57629L68.7599 5.14533ZM72.4754 2.95974L74.3331 1.86695L74.5866 2.29792L72.7289 3.39071L72.4754 2.95974ZM76.1909 0.774155L77.1197 0.227757L77.3732 0.658726L76.4444 1.20512L76.1909 0.774155ZM77.1197 0.227757C77.6197 -0.0663452 78.25 0.294144 78.25 0.874207H77.75C77.75 0.680855 77.5399 0.560692 77.3732 0.658726L77.1197 0.227757ZM78.25 0.874207V1.95243H77.75V0.874207H78.25ZM78.25 4.10888V6.26533H77.75V4.10888H78.25ZM78.25 8.42178V9.5H77.75V8.42178H78.25ZM78.25 9.5C78.25 9.51822 78.2493 9.53634 78.2481 9.55432L77.7493 9.51846C77.7498 9.5124 77.75 9.50625 77.75 9.5H78.25ZM78.2323 9.66237C78.2284 9.68028 78.2238 9.69795 78.2186 9.71536L77.7396 9.57192C77.7413 9.56618 77.7428 9.56035 77.7441 9.55443L78.2323 9.66237ZM78.2273 9.61425C78.2311 9.64618 78.2344 9.67826 78.2373 9.71045L77.7392 9.75447C77.7368 9.7272 77.734 9.70005 77.7308 9.67303L78.2273 9.61425ZM78.2486 9.90342C78.2495 9.9355 78.25 9.9677 78.25 10H77.75C77.75 9.97257 77.7496 9.94524 77.7488 9.91802L78.2486 9.90342ZM78.25 10V10.9167H77.75V10H78.25ZM78.25 12.75V14.5833H77.75V12.75H78.25ZM78.25 16.4167V18.25H77.75V16.4167H78.25ZM78.25 20.0833V21.9167H77.75V20.0833H78.25ZM78.25 23.75V25.5833H77.75V23.75H78.25ZM78.25 27.4167V29.25H77.75V27.4167H78.25ZM78.25 31.0833V32H77.75V31.0833H78.25ZM78.25 32C78.25 32.4402 78.1623 32.8606 78.0033 33.2441L77.5414 33.0526C77.6757 32.7287 77.75 32.3733 77.75 32H78.25ZM76.2441 35.0033C75.8606 35.1623 75.4402 35.25 75 35.25V34.75C75.3733 34.75 75.7287 34.6757 76.0526 34.5414L76.2441 35.0033ZM75 35.25H74V34.75H75V35.25ZM72 35.25H70V34.75H72V35.25ZM68 35.25H66V34.75H68V35.25ZM64 35.25H62V34.75H64V35.25ZM60 35.25H58V34.75H60V35.25ZM56 35.25H54V34.75H56V35.25ZM52 35.25H50V34.75H52V35.25ZM48 35.25H46V34.75H48V35.25ZM44 35.25H42V34.75H44V35.25ZM40 35.25H38V34.75H40V35.25ZM36 35.25H34V34.75H36V35.25ZM32 35.25H30V34.75H32V35.25ZM28 35.25H26V34.75H28V35.25ZM24 35.25H22V34.75H24V35.25ZM20 35.25H18V34.75H20V35.25ZM16 35.25H14V34.75H16V35.25ZM12 35.25H10V34.75H12V35.25ZM8 35.25H6V34.75H8V35.25ZM4 35.25H3V34.75H4V35.25ZM3 35.25C2.55979 35.25 2.13942 35.1623 1.75587 35.0033L1.9474 34.5414C2.2713 34.6757 2.62666 34.75 3 34.75V35.25ZM-0.0032901 33.2441C-0.162341 32.8606 -0.25 32.4402 -0.25 32H0.25C0.25 32.3733 0.324257 32.7287 0.458573 33.0526L-0.0032901 33.2441ZM66.1 7L66.3535 7.43097L66.2362 7.5H66.1V7ZM77.2465 0.443241L77.5 0.874207L77.2465 0.443241ZM77.9791 9.64364L77.4825 9.70241L77.4703 9.59949L77.5001 9.5002L77.9791 9.64364ZM-0.5 32V31.0833H0.5V32H-0.5ZM-0.5 29.25V27.4167H0.5V29.25H-0.5ZM-0.5 25.5833V23.75H0.5V25.5833H-0.5ZM-0.5 21.9167V20.0833H0.5V21.9167H-0.5ZM-0.5 18.25V16.4167H0.5V18.25H-0.5ZM-0.5 14.5833V12.75H0.5V14.5833H-0.5ZM-0.5 10.9167V10H0.5V10.9167H-0.5ZM-0.5 10C-0.5 9.52635 -0.405639 9.07348 -0.234221 8.66011L0.689505 9.04316C0.567556 9.33724 0.5 9.6601 0.5 10H-0.5ZM1.66011 6.76578C2.07348 6.59436 2.52635 6.5 3 6.5V7.5C2.6601 7.5 2.33724 7.56756 2.04317 7.6895L1.66011 6.76578ZM3 6.5H3.98594V7.5H3V6.5ZM5.95781 6.5H7.92969V7.5H5.95781V6.5ZM9.90156 6.5H11.8734V7.5H9.90156V6.5ZM13.8453 6.5H15.8172V7.5H13.8453V6.5ZM17.7891 6.5H19.7609V7.5H17.7891V6.5ZM21.7328 6.5H23.7047V7.5H21.7328V6.5ZM25.6766 6.5H27.6484V7.5H25.6766V6.5ZM29.6203 6.5H31.5922V7.5H29.6203V6.5ZM33.5641 6.5H35.5359V7.5H33.5641V6.5ZM37.5078 6.5H39.4797V7.5H37.5078V6.5ZM41.4516 6.5H43.4234V7.5H41.4516V6.5ZM45.3953 6.5H47.3672V7.5H45.3953V6.5ZM49.3391 6.5H51.3109V7.5H49.3391V6.5ZM53.2828 6.5H55.2547V7.5H53.2828V6.5ZM57.2266 6.5H59.1984V7.5H57.2266V6.5ZM61.1703 6.5H63.1422V7.5H61.1703V6.5ZM65.1141 6.5H66.1V7.5H65.1141V6.5ZM65.8465 6.56903L66.7754 6.02264L67.2824 6.88457L66.3535 7.43097L65.8465 6.56903ZM68.6331 4.92984L70.4909 3.83705L70.9979 4.69898L69.1401 5.79178L68.6331 4.92984ZM72.3486 2.74426L74.2064 1.65146L74.7134 2.5134L72.8556 3.60619L72.3486 2.74426ZM76.0641 0.55867L76.993 0.0122757L77.5 0.874207L76.5711 1.4206L76.0641 0.55867ZM76.993 0.0122757C77.6596 -0.37986 78.5 0.100788 78.5 0.874207H77.5L76.993 0.0122757ZM78.5 0.874207V1.95243H77.5V0.874207H78.5ZM78.5 4.10888V6.26533H77.5V4.10888H78.5ZM78.5 8.42178V9.5H77.5V8.42178H78.5ZM78.5 9.5C78.5 9.52421 78.4991 9.54831 78.4974 9.57225L77.5 9.50052L77.5 9.5H78.5ZM78.4764 9.71634C78.4711 9.74024 78.465 9.76384 78.458 9.78708L77.5001 9.5002L77.5 9.50046L78.4764 9.71634ZM78.4756 9.58487C78.4797 9.61925 78.4832 9.65378 78.4863 9.68845L77.4902 9.77647C77.488 9.75167 77.4854 9.72698 77.4825 9.70241L78.4756 9.58487ZM78.4985 9.89611C78.4995 9.93064 78.5 9.96527 78.5 10H77.5C77.5 9.975 77.4996 9.95011 77.4989 9.92532L78.4985 9.89611ZM78.5 10V10.9167H77.5V10H78.5ZM78.5 12.75V14.5833H77.5V12.75H78.5ZM78.5 16.4167V18.25H77.5V16.4167H78.5ZM78.5 20.0833V21.9167H77.5V20.0833H78.5ZM78.5 23.75V25.5833H77.5V23.75H78.5ZM78.5 27.4167V29.25H77.5V27.4167H78.5ZM78.5 31.0833V32H77.5V31.0833H78.5ZM78.5 32C78.5 32.4736 78.4056 32.9265 78.2342 33.3399L77.3105 32.9568C77.4324 32.6628 77.5 32.3399 77.5 32H78.5ZM76.3399 35.2342C75.9265 35.4056 75.4736 35.5 75 35.5V34.5C75.3399 34.5 75.6628 34.4324 75.9568 34.3105L76.3399 35.2342ZM75 35.5H74V34.5H75V35.5ZM72 35.5H70V34.5H72V35.5ZM68 35.5H66V34.5H68V35.5ZM64 35.5H62V34.5H64V35.5ZM60 35.5H58V34.5H60V35.5ZM56 35.5H54V34.5H56V35.5ZM52 35.5H50V34.5H52V35.5ZM48 35.5H46V34.5H48V35.5ZM44 35.5H42V34.5H44V35.5ZM40 35.5H38V34.5H40V35.5ZM36 35.5H34V34.5H36V35.5ZM32 35.5H30V34.5H32V35.5ZM28 35.5H26V34.5H28V35.5ZM24 35.5H22V34.5H24V35.5ZM20 35.5H18V34.5H20V35.5ZM16 35.5H14V34.5H16V35.5ZM12 35.5H10V34.5H12V35.5ZM8 35.5H6V34.5H8V35.5ZM4 35.5H3V34.5H4V35.5ZM3 35.5C2.52635 35.5 2.07348 35.4056 1.66011 35.2342L2.04316 34.3105C2.33724 34.4324 2.6601 34.5 3 34.5V35.5ZM-0.234222 33.3399C-0.405639 32.9265 -0.5 32.4736 -0.5 32H0.5C0.5 32.3399 0.567556 32.6628 0.689504 32.9568L-0.234222 33.3399Z" fill="#2CDD68" fill-opacity="0.45" mask="url(#path-1-inside-1_1174_4873)"/>
<defs>
<radialGradient id="paint0_radial_1174_4873" cx="0" cy="0" r="1" gradientUnits="userSpaceOnUse" gradientTransform="translate(39 26.8066) rotate(-90) scale(53.518 86.9759)">
<stop stop-color="#2ADE67"/>
<stop offset="1" stop-opacity="0"/>
</radialGradient>
</defs>
</svg>
